<?xml version="1.0" standalone="no"?>
<!DOCTYPE svg PUBLIC "-//W3C//DTD SVG 20010904//EN"
 "http://www.w3.org/TR/2001/REC-SVG-20010904/DTD/svg10.dtd">
<svg version="1.0" xmlns="http://www.w3.org/2000/svg"
 width="894.000000pt" height="894.000000pt" viewBox="0 0 894.000000 894.000000"
 preserveAspectRatio="xMidYMid meet">
<metadata>
Created by potrace 1.11, written by Peter Selinger 2001-2013
</metadata>
<g transform="translate(0.000000,894.000000) scale(0.100000,-0.100000)"
fill="#000000" stroke="none">
<path d="M0 4470 l0 -4470 4470 0 4470 0 0 4470 0 4470 -4470 0 -4470 0 0
-4470z m4533 3896 c23 -17 22 -33 -3 -41 -23 -7 -60 2 -60 16 0 5 -10 9 -22 8
-22 0 -22 -1 -3 -9 19 -7 19 -8 2 -15 -23 -9 -40 6 -31 28 3 9 21 17 42 20 21
2 42 4 47 5 6 1 18 -5 28 -12z m-148 -35 c-4 -3 -24 -11 -45 -17 -31 -9 -40
-9 -44 2 -6 15 4 23 42 34 26 7 59 -6 47 -19z m-147 -13 c-6 -18 -28 -21 -28
-4 0 9 7 16 16 16 9 0 14 -5 12 -12z m148 -96 c26 -20 54 -73 54 -101 0 -11 4
-22 9 -25 4 -3 11 -33 14 -66 7 -61 31 -109 55 -110 14 0 16 -19 3 -38 -5 -9
-31 -14 -74 -15 -58 0 -68 2 -86 24 -11 13 -20 29 -21 35 0 16 21 33 35 28 9
-4 12 3 9 23 -2 15 -7 55 -12 88 -8 65 -16 83 -44 103 -18 13 -25 52 -11 65
12 12 48 7 69 -11z m-1055 -75 c-10 -9 -11 -8 -5 6 3 10 9 15 12 12 3 -3 0
-11 -7 -18z m251 -9 c-8 -8 -8 -15 -1 -24 8 -10 18 -8 44 8 37 21 83 18 109
-8 13 -12 20 -11 52 11 48 33 85 32 123 -2 23 -22 29 -37 29 -66 0 -21 3 -41
6 -44 3 -3 2 -11 -4 -18 -10 -12 -3 -55 9 -55 4 0 15 -6 25 -13 15 -11 16 -17
5 -40 -14 -30 -24 -34 -94 -39 l-50 -3 2 35 c5 58 7 70 15 70 12 0 10 62 -3
99 -15 42 -47 43 -55 1 -4 -16 -10 -30 -15 -30 -5 0 -9 -9 -9 -20 0 -11 4 -20
10 -20 6 0 6 -9 0 -26 -13 -33 -13 -31 10 -37 15 -4 20 -14 20 -36 0 -38 -20
-49 -91 -53 -52 -3 -54 -2 -57 24 -2 15 4 38 14 52 12 20 15 37 9 73 -15 103
-67 99 -80 -6 -3 -25 -1 -41 6 -41 6 0 8 -8 4 -19 -3 -11 0 -21 8 -24 16 -6
28 -65 15 -73 -26 -16 6 -21 125 -17 72 2 139 4 147 5 8 0 22 7 32 15 21 19
197 23 255 6 26 -7 70 -10 115 -6 114 8 141 9 173 0 22 -5 26 -5 15 3 -26 17
0 11 28 -7 43 -28 62 -46 62 -60 0 -21 -14 -22 -67 -3 -58 20 -118 23 -148 7
-23 -12 -145 -10 -161 4 -6 5 -25 10 -40 10 -165 5 -191 4 -227 -14 -22 -10
-45 -16 -53 -13 -7 3 -16 0 -20 -5 -4 -7 -33 -9 -80 -5 -41 3 -74 2 -74 -2 0
-4 -15 -8 -32 -9 -55 -3 -105 -10 -116 -17 -6 -3 -23 -1 -38 5 -21 7 -30 7
-32 -1 -11 -31 -62 -55 -62 -29 0 7 -9 0 -21 -15 -17 -21 -24 -24 -35 -15 -8
6 -14 8 -14 4 0 -4 -7 -2 -15 5 -8 6 -20 8 -26 4 -7 -4 -40 -8 -73 -8 -52 -2
-61 -5 -64 -21 -2 -11 -11 -26 -20 -32 -27 -22 -7 -24 33 -3 24 12 52 18 76
16 22 -2 37 -1 35 2 -2 4 10 7 27 7 18 0 61 7 97 17 36 10 79 21 95 25 17 3
33 11 37 17 5 8 8 7 8 -1 0 -7 5 -13 11 -13 5 0 8 4 5 9 -3 5 5 11 19 13 14 3
25 1 25 -3 0 -5 7 -9 16 -9 8 0 12 5 9 10 -4 6 24 10 77 10 112 0 128 2 128
19 0 12 3 12 18 -2 15 -14 19 -14 41 4 12 10 27 16 32 13 6 -3 20 1 32 8 25
16 80 14 137 -6 22 -8 40 -10 40 -6 0 13 29 20 36 8 5 -7 2 -8 -6 -3 -9 5 -11
4 -6 -4 5 -7 20 -10 37 -7 16 2 31 0 35 -5 3 -5 0 -9 -7 -9 -7 0 -9 -3 -5 -7
4 -5 14 0 21 10 11 16 17 17 35 7 15 -8 20 -8 16 -1 -5 7 2 11 18 11 14 0 26
4 26 9 0 14 79 18 84 5 3 -8 -4 -11 -20 -9 -13 1 -27 -2 -30 -7 -3 -4 7 -8 23
-8 44 2 110 -16 127 -33 19 -19 22 -42 4 -31 -17 11 -105 18 -95 8 4 -4 14 -9
22 -11 8 -2 23 -5 33 -7 9 -3 23 -5 29 -5 7 -1 20 -12 29 -27 20 -29 7 -51
-23 -40 -10 4 -20 7 -23 8 -3 0 -14 5 -25 11 -28 15 -84 16 -130 2 -53 -16
-160 -19 -186 -4 -12 6 -59 13 -104 16 -63 4 -91 1 -121 -12 -49 -22 -65 -24
-194 -30 -166 -7 -257 -21 -282 -45 -12 -11 -28 -18 -35 -16 -7 3 -15 1 -17
-3 -3 -5 43 -11 102 -14 117 -7 175 -13 237 -27 25 -6 44 -5 50 1 12 12 45 12
45 -1 0 -5 8 -10 18 -10 9 0 26 -7 36 -15 12 -9 29 -12 40 -9 12 4 17 3 13 -2
-8 -8 109 -49 243 -85 41 -11 95 -27 120 -36 62 -21 149 -44 185 -49 17 -2 48
-13 70 -24 21 -11 50 -20 62 -20 13 0 23 -4 23 -9 0 -4 27 -12 61 -15 46 -5
67 -13 86 -32 16 -16 35 -24 58 -24 19 0 35 -5 35 -11 0 -6 17 -9 43 -7 37 3
42 1 39 -16 -3 -16 -1 -18 10 -8 11 9 21 9 41 -1 33 -15 36 -31 5 -22 l-23 7
22 -16 c21 -16 53 -13 53 5 0 5 5 9 11 9 5 0 7 -4 4 -10 -4 -6 6 -10 22 -10
25 0 29 -4 28 -27 0 -24 4 -28 30 -28 17 0 33 -6 37 -15 5 -11 7 -9 7 8 1 22
-5 25 -44 23 -20 -1 -20 -1 0 8 21 9 55 3 55 -9 0 -4 17 -11 38 -16 22 -4 30
-9 19 -11 -9 -3 -15 -9 -12 -14 4 -5 0 -9 -7 -9 -7 0 0 -7 16 -15 16 -9 38
-13 50 -10 17 5 18 4 6 -4 -13 -10 -13 -12 0 -21 11 -7 16 -5 18 10 2 10 10
24 18 30 11 10 14 9 14 -9 0 -15 6 -21 24 -21 13 0 29 -7 37 -16 11 -13 9 -14
-17 -8 -16 4 -37 11 -46 16 -13 6 -18 5 -18 -7 0 -8 6 -15 14 -15 7 0 19 -7
26 -15 7 -8 21 -15 31 -15 11 0 19 -3 19 -8 0 -12 124 -72 149 -72 14 0 21 6
21 20 0 11 7 20 15 20 22 0 18 -37 -5 -43 -11 -3 -20 -9 -20 -14 1 -9 90 -53
108 -53 6 0 23 -11 38 -25 15 -14 33 -25 40 -25 7 0 19 -8 26 -17 7 -10 22
-20 33 -21 11 -2 27 -9 35 -16 8 -7 32 -23 53 -35 l37 -23 40 36 c22 20 42 36
44 36 3 0 3 -12 2 -27 -2 -16 -4 -34 -5 -42 -1 -9 -9 -11 -26 -7 -33 8 -34
-18 -1 -36 13 -7 54 -33 90 -57 67 -45 80 -67 50 -92 -13 -10 -17 -10 -26 2
-8 11 -9 10 -4 -5 5 -14 2 -17 -13 -13 -15 3 -17 0 -13 -16 5 -20 2 -20 -204
-14 -148 4 -227 11 -269 22 -84 23 -245 85 -275 106 -14 9 -47 28 -75 41 -74
37 -93 48 -177 105 -42 28 -91 59 -109 68 -18 10 -44 28 -58 42 -14 13 -73 56
-131 95 -58 39 -112 77 -121 84 -38 34 -383 213 -449 235 -14 4 -49 16 -77 27
-29 11 -53 19 -53 16 0 -2 -21 8 -47 22 -27 14 -73 31 -103 39 -30 7 -68 18
-85 23 -163 54 -310 74 -550 74 -169 0 -394 -25 -430 -47 -11 -7 -54 -16 -95
-20 -41 -3 -113 -19 -160 -35 -47 -15 -107 -34 -135 -41 -48 -12 -85 -27 -220
-90 -66 -31 -185 -114 -185 -129 0 -6 -6 -10 -14 -10 -8 0 -16 -3 -18 -7 -1
-5 -25 -28 -53 -52 -27 -25 -55 -54 -62 -65 -7 -12 -12 -17 -13 -13 0 12 -30
-20 -30 -33 0 -6 -17 -29 -38 -53 -44 -49 -76 -97 -65 -97 5 0 0 -5 -9 -11
-11 -6 -18 -22 -18 -39 0 -17 -5 -30 -12 -30 -6 0 -9 -3 -5 -6 10 -11 49 7 43
21 -2 7 2 21 9 32 10 12 14 14 15 4 0 -19 30 6 30 25 0 8 5 14 10 14 6 0 10
-7 10 -15 0 -19 26 -20 34 0 3 8 12 12 21 9 8 -3 15 -1 15 5 0 6 -5 11 -12 11
-6 0 -2 9 10 20 12 12 22 28 22 37 0 13 3 14 12 5 18 -18 28 -15 28 9 0 13 4
18 12 13 7 -4 8 -3 4 5 -4 7 -17 9 -29 6 l-22 -6 23 20 c20 17 32 49 15 38 -5
-3 -8 6 -8 19 0 13 6 24 13 24 7 0 15 6 18 14 3 8 19 18 35 21 16 4 29 13 29
21 0 8 8 14 18 14 14 0 15 -2 2 -10 -8 -5 -11 -12 -7 -16 3 -4 23 10 44 30 21
20 32 36 26 36 -7 0 -15 -4 -18 -10 -3 -5 -12 -10 -18 -9 -7 0 -2 7 11 16 12
8 22 22 22 30 0 11 7 14 21 10 15 -4 19 -2 15 9 -3 8 -2 13 3 10 5 -3 12 2 15
11 6 15 8 15 16 3 8 -12 10 -11 11 5 1 17 2 16 9 -5 l8 -25 1 28 c1 17 7 27
16 27 11 0 14 -7 9 -25 -9 -35 8 -31 30 6 15 26 16 33 5 40 -11 7 -9 9 7 9 11
0 25 5 32 12 9 9 12 8 12 -5 0 -9 5 -17 10 -17 6 0 10 8 10 18 0 16 17 31 68
59 20 10 22 10 22 -9 0 -17 3 -18 15 -8 8 6 23 9 34 5 10 -3 22 -2 25 4 3 5
16 7 29 4 21 -4 21 -4 4 11 -11 8 -25 12 -33 9 -8 -3 -14 0 -14 6 0 6 6 12 13
12 21 2 31 5 50 13 10 5 21 5 25 1 4 -4 1 -10 -5 -12 -20 -7 -15 -23 5 -19 26
5 72 25 72 31 0 4 -9 3 -20 0 -14 -5 -20 -2 -20 9 0 9 9 17 23 17 100 7 97 7
87 -12 -9 -16 -8 -16 23 -2 17 9 40 22 49 30 9 8 37 15 63 15 35 0 45 3 41 13
-4 10 11 14 62 14 37 1 127 2 199 4 113 2 133 0 133 -13 0 -9 3 -11 8 -5 8 13
102 12 122 0 8 -5 38 -8 67 -8 29 1 53 -2 53 -7 0 -4 12 -10 28 -13 66 -13
143 -35 156 -46 7 -6 20 -9 27 -6 8 2 23 -2 34 -11 20 -15 20 -15 1 -30 -18
-13 -16 -14 30 -14 56 0 94 -9 94 -21 0 -4 -8 -7 -17 -7 -10 0 -43 -3 -73 -7
-30 -4 -71 -8 -90 -10 -19 -2 -42 -5 -50 -8 -8 -3 -62 -13 -120 -22 -58 -10
-110 -21 -116 -26 -6 -5 -13 -7 -16 -4 -3 3 -22 -2 -44 -11 -21 -9 -58 -18
-81 -20 -38 -3 -76 -15 -185 -56 -52 -20 -60 -31 -18 -25 53 8 77 15 98 26 11
6 22 7 26 4 3 -3 6 -1 6 6 0 8 11 11 28 9 16 -1 26 2 25 8 -1 7 23 14 59 18
34 3 87 13 117 22 130 37 211 50 211 34 0 -5 5 -10 11 -10 5 0 8 4 5 9 -12 18
22 30 107 35 79 6 87 4 87 -11 0 -15 4 -14 19 7 19 24 20 24 73 11 29 -8 60
-18 68 -22 8 -4 60 -24 115 -44 105 -38 366 -169 452 -226 28 -19 91 -60 139
-91 49 -32 118 -78 154 -103 36 -25 122 -80 193 -122 70 -42 127 -80 127 -84
0 -5 7 -6 15 -3 8 4 15 1 15 -5 0 -6 5 -11 12 -11 6 0 23 -10 36 -22 14 -13
22 -17 17 -9 -6 11 -4 13 9 8 10 -4 24 -7 32 -7 8 0 14 -7 14 -15 0 -8 11 -22
25 -31 19 -13 25 -25 25 -55 0 -45 -15 -58 -36 -33 -14 17 -15 16 -11 -23 4
-31 1 -43 -8 -43 -7 0 -18 -7 -25 -15 -7 -9 -18 -14 -24 -12 -6 2 -23 0 -38
-4 -19 -5 -28 -4 -28 4 0 7 -5 19 -10 27 -8 13 -11 12 -24 -5 -13 -19 -15 -19
-21 -2 -8 20 -51 23 -58 5 -3 -8 -6 -5 -6 6 -1 17 -2 17 -27 1 -15 -10 -32
-14 -42 -9 -9 4 -25 6 -36 5 -10 -2 -15 2 -12 7 6 10 -48 -4 -106 -27 -22 -8
-26 -8 -21 5 4 12 1 13 -18 5 -65 -25 -105 -44 -118 -55 -7 -6 -34 -18 -60
-26 -30 -10 -45 -20 -44 -30 3 -14 -46 -44 -71 -45 -15 0 -18 -22 -5 -30 6 -5
16 -1 21 9 11 19 40 22 32 2 -9 -24 26 -27 57 -4 16 12 29 25 29 29 0 4 9 9
20 12 11 3 20 1 20 -4 0 -5 10 -9 21 -9 18 0 19 -2 9 -15 -7 -8 -23 -15 -37
-15 -14 0 -22 -4 -18 -10 4 -6 1 -17 -5 -25 -10 -12 -9 -15 9 -15 14 0 20 4
15 12 -4 7 -3 8 4 4 17 -10 15 -33 -3 -40 -8 -3 -15 -10 -15 -15 0 -7 9 -7 26
-1 38 15 40 13 13 -17 l-24 -27 25 16 c14 9 30 32 36 53 10 38 48 75 62 60 4
-4 1 -10 -5 -12 -7 -3 -13 -9 -13 -14 0 -12 27 2 57 30 12 12 33 21 47 21 14
0 27 4 30 9 6 9 56 21 56 13 0 -3 -8 -11 -17 -18 -10 -7 -13 -14 -6 -14 6 0
15 5 18 10 3 6 18 10 33 10 15 0 48 11 74 25 56 30 86 33 43 5 -16 -10 -33
-28 -37 -39 -6 -18 -4 -19 18 -11 32 13 74 13 74 1 0 -5 -6 -12 -12 -14 -7 -2
-1 -3 14 -1 14 2 32 -3 38 -11 15 -18 56 -20 66 -4 4 8 9 7 15 -2 6 -9 12 -10
17 -4 10 14 106 20 98 6 -4 -6 -17 -11 -29 -11 -12 0 -32 -3 -43 -6 -19 -5
-20 -9 -10 -30 8 -19 16 -23 31 -18 11 3 34 7 50 8 17 0 43 9 59 19 30 20 56
17 56 -8 0 -8 5 -15 10 -15 25 0 6 -18 -32 -30 l-43 -13 28 -11 c15 -5 27 -13
27 -18 0 -4 7 -8 15 -8 19 0 19 -7 1 -25 -7 -8 -17 -11 -21 -7 -5 4 -5 1 -1
-5 9 -15 36 -17 36 -3 0 17 54 67 68 63 6 -3 12 -14 12 -25 0 -18 1 -18 16 -4
20 20 34 20 34 1 0 -8 7 -15 15 -15 8 0 15 7 15 15 0 8 7 15 15 15 8 0 15 5
15 11 0 5 -4 8 -9 5 -5 -3 -14 1 -22 10 -7 8 -22 14 -33 13 -12 0 -27 -1 -33
0 -15 1 -18 31 -3 31 6 0 10 16 10 35 0 19 -4 35 -10 35 -5 0 -10 7 -10 15 0
7 -7 18 -16 23 -22 12 -29 86 -8 78 8 -3 14 -2 14 3 0 5 -10 11 -22 15 l-23 6
25 20 25 20 -32 0 c-22 0 -33 5 -33 14 0 8 4 16 9 18 5 2 7 16 4 31 -4 22 -9
26 -26 21 -11 -4 -32 -7 -46 -9 -14 -1 -34 -5 -43 -9 -9 -4 -25 -3 -35 3 -16
9 -16 10 -1 11 31 0 67 22 61 36 -3 9 2 14 14 14 10 0 25 6 32 13 10 10 11 7
6 -15 -7 -26 3 -37 19 -21 9 9 46 12 41 3 -2 -4 3 -16 11 -26 15 -18 15 -18
11 4 -3 12 0 22 5 22 6 0 8 -12 5 -30 -4 -16 -2 -32 4 -36 5 -3 8 -11 6 -17
-2 -6 8 -21 21 -32 25 -22 23 -49 -2 -39 -10 4 -12 -2 -9 -20 4 -17 1 -26 -8
-26 -8 0 -4 -8 9 -21 12 -11 27 -17 32 -14 6 3 10 -1 10 -10 0 -11 -5 -15 -14
-12 -8 3 -17 -1 -20 -10 -9 -23 2 -29 26 -14 19 12 23 11 34 -5 8 -11 18 -24
24 -31 5 -7 10 -17 10 -22 0 -5 5 -13 10 -16 7 -4 9 2 4 19 -9 35 18 35 41 0
17 -26 17 -27 -4 -21 -30 7 -27 -17 4 -31 20 -9 24 -18 23 -49 -1 -45 -8 -60
-18 -43 -6 10 -15 8 -39 -6 -29 -17 -38 -34 -25 -47 11 -11 34 5 34 24 0 10 3
19 6 19 11 0 36 -31 30 -37 -7 -7 12 -33 25 -33 5 0 6 7 3 15 -4 10 0 15 11
15 11 0 15 -5 12 -14 -3 -8 -1 -17 6 -20 9 -5 9 -7 0 -12 -21 -9 -15 -23 7
-17 16 4 20 0 20 -21 0 -14 4 -26 8 -26 5 0 8 -19 8 -41 -1 -29 4 -43 14 -46
13 -4 13 -3 0 6 -8 6 -10 11 -4 11 6 0 18 -8 27 -17 13 -16 14 -20 1 -37 -20
-28 -17 -37 9 -31 22 6 23 4 21 -44 -2 -28 2 -54 8 -57 7 -5 9 -1 5 9 -4 11
-2 14 8 11 8 -3 11 -12 8 -20 -3 -10 0 -12 10 -8 20 7 30 35 17 48 -16 16 -12
30 5 16 27 -22 10 -80 -24 -80 -6 0 -15 -9 -21 -20 -6 -11 -7 -20 -3 -19 23 4
31 -4 37 -37 6 -27 10 -33 20 -25 21 17 28 0 11 -26 -9 -13 -13 -32 -10 -42 9
-28 -24 -36 -35 -8 l-9 22 0 -22 c-1 -13 4 -23 9 -23 6 0 10 -8 10 -17 1 -16
2 -16 15 1 13 17 15 18 15 3 0 -18 -26 -48 -56 -65 -18 -10 -18 -11 -1 -30 10
-10 15 -26 12 -33 -3 -8 1 -34 9 -56 16 -45 7 -59 -27 -41 -26 13 -35 1 -12
-16 11 -8 16 -20 12 -29 -10 -26 -57 -1 -57 30 0 12 -5 23 -11 23 -5 0 -7 -4
-4 -10 3 -5 1 -10 -4 -10 -12 0 -14 -45 -5 -102 5 -27 12 -38 24 -38 19 0 32
-21 36 -60 2 -17 0 -21 -5 -11 -7 11 -11 10 -19 -5 -5 -11 -7 -25 -5 -32 3 -8
-1 -10 -11 -6 -21 8 -21 -19 -1 -36 8 -7 15 -21 15 -31 0 -12 7 -19 20 -19 10
0 25 -10 31 -22 7 -13 19 -27 27 -32 10 -6 11 -10 3 -16 -14 -8 -5 -60 10 -60
5 0 9 -18 9 -41 0 -24 -4 -38 -10 -34 -5 3 -10 15 -10 25 0 20 -17 36 -27 26
-3 -3 0 -13 7 -22 11 -13 11 -19 1 -36 -7 -11 -8 -17 -3 -14 6 3 12 -1 16 -9
4 -10 -1 -15 -14 -15 -11 0 -20 -6 -20 -14 0 -25 12 -46 25 -46 16 0 28 -45
20 -72 -8 -23 2 -71 13 -64 5 3 9 -14 11 -37 1 -23 7 -44 13 -48 6 -4 8 -11 4
-17 -3 -6 1 -17 9 -25 8 -9 15 -23 15 -31 0 -9 9 -21 20 -28 13 -9 20 -24 20
-45 0 -18 -4 -33 -8 -33 -11 0 -3 -194 8 -198 6 -2 10 -12 10 -23 0 -10 5 -19
10 -19 6 0 13 -7 17 -15 6 -18 -23 -44 -49 -45 -26 0 -23 -39 4 -49 14 -5 18
-10 10 -15 -9 -5 -6 -16 9 -38 16 -22 22 -46 23 -88 1 -32 -2 -56 -5 -54 -10
6 -33 -25 -25 -33 4 -4 11 -2 15 6 6 10 10 9 15 -4 3 -9 10 -14 15 -11 5 3 11
-3 14 -14 3 -11 1 -18 -4 -14 -15 9 -10 -16 8 -47 16 -28 10 -57 -6 -30 -17
26 -28 1 -27 -57 1 -42 7 -66 23 -85 22 -29 21 -77 -3 -77 -8 0 -14 -8 -14
-18 0 -10 -5 -23 -12 -30 -7 -7 -12 -39 -13 -72 0 -46 -4 -62 -19 -73 -15 -11
-17 -20 -11 -43 6 -25 8 -27 14 -10 6 16 9 17 16 6 5 -8 4 -15 -2 -17 -30 -10
-46 -31 -38 -49 20 -45 14 -104 -10 -104 -18 0 -20 -17 -2 -23 15 -5 -37 -57
-58 -57 -9 0 -17 -15 -21 -41 -4 -22 -13 -43 -20 -46 -8 -3 -11 -9 -8 -14 3
-5 1 -9 -5 -9 -5 0 -13 -9 -16 -21 -7 -19 -7 -20 -21 -2 -12 17 -13 17 -14 1
0 -21 -11 -23 -29 -5 -11 10 -12 7 -7 -16 4 -19 3 -26 -6 -25 -16 4 -19 -45
-4 -54 7 -5 4 -12 -9 -22 -22 -16 -41 -11 -27 7 5 7 9 22 10 35 1 27 -37 32
-40 5 0 -10 -2 -23 -2 -30 -1 -6 -5 -15 -10 -20 -5 -4 -6 -3 -3 3 11 19 -24
26 -38 7 -11 -15 -14 -14 -30 10 l-17 26 -36 -37 c-20 -20 -35 -41 -33 -46 3
-13 -19 -68 -37 -88 -7 -9 -21 -14 -29 -11 -13 5 -13 3 -3 -17 7 -12 7 -20 2
-16 -6 3 -12 2 -14 -2 -1 -5 -17 -12 -35 -15 -27 -5 -31 -4 -26 10 4 10 2 14
-4 10 -16 -10 -43 3 -43 20 0 20 -23 41 -53 48 -30 8 -69 47 -65 65 6 24 -51
54 -117 59 -5 1 -33 27 -63 58 -49 53 -53 56 -46 28 4 -16 10 -32 13 -35 4 -3
14 -17 24 -32 9 -15 23 -25 30 -22 8 3 20 -3 28 -12 12 -15 12 -16 -9 -10 -13
4 -22 3 -22 -3 0 -10 -73 -7 -113 4 -20 7 -21 6 -4 -7 23 -18 12 -52 -14 -45
-25 7 -25 4 16 -49 19 -25 35 -51 35 -59 0 -7 6 -18 14 -24 7 -6 16 -30 19
-53 3 -22 11 -45 19 -49 9 -6 6 -9 -10 -9 -17 0 -24 7 -29 30 -6 33 -26 53
-23 24 4 -37 0 -46 -16 -40 -13 5 -15 1 -10 -18 3 -14 3 -27 -2 -30 -13 -8
-40 19 -47 47 -7 28 -19 35 -30 17 -9 -15 -25 -12 -25 5 0 8 -3 15 -7 15 -12
0 -15 -157 -4 -164 11 -7 41 -64 41 -78 0 -4 -5 -8 -12 -8 -6 0 -9 3 -5 6 3 4
-10 22 -29 41 -20 19 -37 33 -39 31 -2 -2 0 -21 5 -43 10 -41 12 -98 3 -63 -2
10 -9 18 -14 18 -6 0 -7 -9 -4 -20 7 -22 2 -24 -25 -10 -29 16 -50 2 -51 -34
0 -29 -1 -29 -9 -8 -7 15 -6 29 2 42 7 10 9 22 5 26 -11 11 -16 1 -20 -36 -3
-19 -9 -36 -16 -38 -6 -2 -11 -15 -11 -28 0 -13 -5 -24 -11 -24 -6 0 -9 9 -6
20 3 11 1 23 -4 26 -5 3 -7 34 -3 72 5 51 12 73 31 93 21 23 22 27 8 39 -8 7
-15 22 -15 34 0 17 -2 18 -10 6 -5 -8 -7 -29 -4 -45 4 -22 0 -38 -15 -55 -19
-23 -20 -24 -21 -5 -3 49 -14 75 -26 62 -4 -3 -3 -14 1 -24 5 -10 7 -24 6 -30
-1 -7 3 -21 8 -31 8 -14 6 -19 -5 -19 -8 0 -14 11 -15 26 -1 32 -17 74 -19 51
-1 -8 -5 -4 -10 10 -6 22 -8 23 -15 7 -5 -12 -2 -24 7 -34 12 -11 13 -24 8
-49 -6 -25 -4 -39 6 -49 18 -18 18 -35 -1 -35 -8 0 -12 6 -9 14 3 8 -5 24 -18
35 -21 20 -23 20 -29 4 -4 -10 -5 -21 -2 -26 2 -4 -1 -7 -6 -7 -12 0 -15 18
-12 69 2 20 -1 31 -7 27 -5 -3 -13 6 -16 19 -9 36 -26 21 -26 -23 -1 -21 -9
-47 -19 -59 -22 -27 -31 -29 -31 -8 0 33 -18 12 -19 -22 -2 -65 -5 -83 -14
-83 -5 0 -6 16 -3 35 4 21 3 35 -3 35 -5 0 -11 -10 -13 -23 -2 -12 -7 -20 -12
-19 -5 2 -12 -2 -16 -9 -6 -8 -13 -3 -24 17 -8 16 -15 27 -16 24 -2 -20 -29
-81 -30 -67 0 9 -4 17 -10 17 -5 0 -10 9 -10 20 0 11 -5 20 -10 20 -6 0 -5 8
2 20 10 16 10 25 -4 48 -19 31 -13 49 9 30 20 -16 28 -2 14 25 -7 13 -11 30
-9 38 2 9 -4 13 -19 11 -17 -2 -23 2 -24 15 0 10 -3 13 -5 6 -3 -7 0 -22 7
-34 9 -17 9 -24 0 -27 -14 -5 -15 -48 -1 -57 6 -3 -1 -23 -16 -47 -14 -22 -20
-38 -13 -36 8 3 21 -10 31 -29 20 -36 24 -93 8 -93 -6 0 -8 11 -4 25 5 20 3
24 -10 19 -13 -5 -16 1 -16 26 0 26 -3 30 -13 21 -22 -18 -26 -3 -12 44 12 37
11 45 -1 56 -11 9 -14 8 -15 -2 0 -10 -2 -11 -6 -1 -7 19 -23 14 -23 -8 0 -10
8 -24 18 -29 16 -10 16 -10 0 -11 -12 0 -18 -8 -18 -21 0 -15 -4 -19 -16 -15
-9 3 -20 6 -26 6 -6 0 -8 6 -5 14 3 8 -7 28 -24 45 -32 34 -34 34 -17 -4 6
-14 18 -25 27 -25 13 -1 12 -3 -4 -16 -14 -10 -19 -24 -17 -48 2 -19 -1 -37
-7 -41 -7 -4 -10 7 -9 32 1 46 -10 85 -23 77 -5 -3 -7 -10 -3 -15 3 -5 2 -24
-1 -41 -6 -25 -9 -28 -16 -15 -6 10 -4 32 6 61 15 43 15 71 0 108 -4 9 -2 25
4 36 8 15 6 23 -10 38 -16 15 -21 16 -19 4 1 -8 1 -22 0 -30 -2 -8 -6 12 -10
45 -4 38 -3 65 4 75 23 31 37 62 32 68 -3 3 -6 0 -6 -6 0 -7 -6 -12 -13 -12
-9 0 -12 11 -9 35 l4 35 24 -25 c22 -24 24 -25 24 -6 0 12 5 21 10 21 6 0 10
-7 10 -15 0 -8 5 -15 10 -15 6 0 11 -24 11 -52 1 -29 4 -44 6 -33 3 11 10 23
15 26 5 3 11 44 13 90 5 94 7 110 24 156 13 34 38 50 54 34 7 -7 16 -7 28 -1
21 12 31 0 18 -20 -18 -30 -9 -46 11 -20 21 27 26 50 10 50 -5 0 -12 11 -16
25 -7 30 -20 32 -27 5 -3 -13 -10 -18 -21 -14 -21 8 -20 35 2 40 22 6 45 51
28 58 -10 4 60 76 76 76 3 0 4 -10 1 -22 -4 -22 -3 -21 10 2 8 14 18 35 22 48
6 21 4 22 -19 16 -31 -7 -35 10 -6 26 11 6 20 15 20 21 0 6 -9 8 -20 4 -11 -4
-20 -2 -20 4 0 6 -7 11 -15 11 -8 0 -15 -4 -15 -9 0 -5 -10 -11 -22 -15 -17
-4 -29 1 -45 21 l-21 26 -7 -36 c-4 -21 -11 -40 -16 -43 -5 -3 -6 -10 -3 -16
5 -7 -1 -9 -15 -5 -13 3 -20 3 -17 0 3 -3 -2 -12 -10 -21 -11 -10 -12 -18 -5
-25 21 -21 11 -46 -24 -63 -47 -22 -44 -35 6 -32 42 3 64 -14 35 -25 -9 -4
-15 -3 -15 1 3 20 -3 20 -21 2 -11 -11 -19 -23 -19 -27 4 -23 -5 -35 -45 -62
-24 -17 -49 -44 -56 -61 -7 -17 -18 -29 -24 -28 -30 6 -113 -32 -124 -57 -10
-22 -78 -49 -95 -38 -6 4 -8 -2 -5 -15 4 -14 0 -22 -13 -25 -10 -3 -18 -2 -17
2 1 3 -4 17 -10 31 -10 24 -11 24 -11 3 -1 -24 -20 -43 -22 -21 0 10 -2 10 -6
-1 -9 -22 -43 -53 -43 -38 -1 6 -11 0 -23 -16 -26 -31 -45 -25 -23 8 8 12 11
27 6 34 -5 9 -15 -2 -29 -33 -13 -25 -20 -49 -17 -54 6 -10 -21 -52 -34 -52
-4 0 -32 23 -61 50 -29 28 -59 48 -66 46 -18 -7 -16 -26 2 -26 8 0 15 -7 15
-15 0 -17 -2 -18 -24 -9 -9 3 -16 11 -16 16 0 6 -13 26 -30 45 -16 18 -30 38
-30 43 0 6 -3 9 -7 8 -18 -4 -63 27 -63 43 0 10 -9 25 -21 33 -14 9 -18 19
-13 28 4 7 -2 4 -14 -6 -14 -12 -22 -15 -22 -7 0 7 -9 26 -21 42 -13 18 -18
36 -14 49 5 16 2 20 -14 20 -14 0 -19 5 -15 15 4 8 -1 26 -10 40 -9 13 -16 33
-16 45 0 11 -7 20 -15 20 -8 0 -15 4 -15 9 0 16 -44 17 -56 2 -7 -9 -18 -11
-33 -6 -24 7 -24 11 -6 101 5 21 2 34 -9 43 -8 7 -12 19 -9 27 3 8 -3 33 -12
57 -9 23 -19 51 -21 61 -2 11 -9 23 -16 27 -8 5 -14 31 -15 61 -2 61 -17 200
-28 247 -4 21 -3 31 5 31 21 0 4 23 -18 25 -12 1 -22 1 -22 0 0 -2 7 -18 15
-38 17 -41 9 -55 -15 -27 -22 25 -36 128 -21 143 6 6 11 17 11 24 0 10 -5 11
-19 3 -23 -12 -36 2 -27 26 3 9 -1 25 -9 37 -18 25 -19 37 -5 37 6 0 15 -10
20 -22 8 -21 9 -20 9 10 1 22 -4 32 -14 32 -9 0 -19 8 -22 17 -4 9 -15 25 -25
35 -18 18 -26 54 -9 43 5 -3 13 0 17 6 4 8 3 9 -4 5 -7 -4 -12 0 -13 11 -1 17
-2 17 -6 1 -8 -30 -22 -20 -34 25 -19 69 -20 107 -3 107 25 0 12 35 -14 38
-20 3 -23 8 -17 29 5 23 3 25 -18 21 -20 -4 -23 -1 -19 14 3 15 -2 18 -27 18
-17 0 -31 5 -31 10 0 6 7 10 15 10 8 0 15 6 15 13 0 21 -12 28 -27 15 -16 -13
-28 -5 -18 12 5 7 19 10 37 6 27 -5 29 -4 26 22 -2 17 -8 26 -17 24 -12 -3
-12 0 -1 12 11 14 9 16 -13 16 -51 0 -77 17 -77 50 0 20 -5 30 -15 30 -10 0
-15 -10 -15 -31 0 -17 -4 -28 -10 -24 -12 7 -13 48 -2 59 12 13 8 70 -7 88
-14 16 -16 16 -31 -2 -9 -11 -19 -17 -22 -14 -3 3 7 20 24 37 17 19 27 39 24
50 -3 12 0 17 8 14 7 -3 18 4 24 14 8 12 8 19 2 19 -5 0 -10 -4 -10 -10 0 -5
-4 -10 -10 -10 -15 0 -12 30 4 36 22 8 50 99 38 120 -9 15 -10 15 -17 -6 -4
-13 -16 -33 -27 -44 -12 -13 -18 -32 -16 -50 2 -22 -2 -31 -14 -34 -13 -2 -18
3 -18 17 0 12 -6 21 -15 21 -8 0 -15 -5 -15 -11 0 -5 5 -7 10 -4 7 4 8 -3 4
-22 -10 -40 -13 -41 -36 -13 -11 14 -25 24 -29 23 -5 -2 -9 2 -9 8 0 6 14 16
30 22 37 14 38 32 3 45 -16 6 -21 11 -13 11 19 1 22 62 4 68 -16 5 -27 -27
-14 -42 7 -9 6 -16 -4 -24 -8 -6 -12 -22 -10 -34 3 -12 -2 -5 -10 16 -12 29
-14 66 -10 160 3 67 5 144 5 171 0 45 2 48 16 33 9 -9 16 -30 16 -47 0 -32 6
-37 24 -19 7 7 15 2 27 -15 9 -15 25 -26 36 -26 15 0 20 -7 20 -28 0 -18 9
-37 25 -50 31 -27 32 -27 46 0 9 18 8 24 -6 34 -45 33 -28 141 23 138 28 -2
36 10 22 35 -12 23 4 76 20 66 5 -3 10 -1 10 4 0 6 -7 11 -16 11 -18 0 -14 24
4 26 7 1 17 2 22 3 13 1 13 31 -1 31 -6 0 -8 9 -4 20 4 13 2 20 -7 20 -10 0
-9 3 2 10 8 5 10 10 4 10 -5 0 -16 -6 -23 -12 -11 -11 -12 -8 -6 17 6 29 35
65 52 65 4 0 19 18 33 40 13 22 27 40 31 40 4 0 10 -19 14 -42 11 -64 30 -104
67 -138 28 -26 39 -30 70 -25 47 7 89 25 82 37 -3 4 -10 5 -16 2 -7 -4 -8 -2
-4 5 4 6 25 20 47 32 22 11 39 25 38 32 -1 7 -1 29 0 49 1 29 4 36 16 32 8 -4
15 -1 15 5 0 6 -11 11 -24 11 -16 0 -27 7 -31 20 -8 27 3 44 19 31 7 -6 16 -8
19 -4 4 3 9 -2 13 -11 9 -24 26 -20 22 6 -4 29 -69 51 -128 44 -25 -3 -56 -7
-70 -9 -14 -1 -45 -11 -70 -23 -25 -11 -57 -24 -72 -27 -26 -7 -190 -122 -196
-139 -2 -4 -8 -8 -14 -8 -7 0 -8 15 -4 40 7 45 0 49 -32 20 -24 -22 -25 -26
-22 -81 1 -34 -42 -119 -61 -119 -16 0 -29 40 -23 65 4 17 1 32 -10 44 -12 13
-14 21 -6 26 8 5 5 11 -7 21 -10 7 -14 14 -10 14 4 0 -1 10 -13 22 -11 12 -20
35 -20 50 0 20 -4 27 -12 22 -8 -5 -9 0 -5 16 3 13 1 30 -4 37 -8 9 -5 24 11
55 34 67 63 95 121 119 15 6 29 18 32 28 4 16 20 20 99 26 53 3 115 6 139 5
62 -3 66 -2 84 17 13 12 19 13 24 4 6 -8 15 -9 33 -2 14 5 28 8 31 5 2 -2 17
0 33 7 16 6 65 11 109 11 44 0 69 3 55 5 -14 3 -31 10 -38 15 -19 16 5 39 34
32 13 -4 24 -2 24 4 0 5 -11 13 -25 16 -16 4 -22 11 -19 21 4 10 0 15 -13 15
-11 0 -42 11 -69 25 -27 14 -60 25 -74 26 -20 1 -17 3 13 11 41 11 125 -8 163
-37 11 -8 29 -15 41 -15 l22 0 -22 24 c-12 12 -40 29 -61 36 -22 7 -54 22 -73
32 -25 15 -37 17 -47 9 -15 -13 -113 -17 -138 -6 -10 4 -18 3 -18 -3 0 -5 -27
-14 -60 -19 -33 -5 -60 -6 -60 -2 0 4 -9 7 -20 6 -25 -2 -27 -17 -2 -17 9 -1
-1 -7 -23 -15 -43 -15 -74 -4 -45 16 11 8 6 9 -20 4 -120 -21 -148 -18 -117
15 6 7 1 6 -13 -3 -28 -20 -71 -23 -68 -5 2 6 -5 14 -15 16 -15 3 -18 0 -13
-16 4 -11 3 -23 -3 -26 -14 -9 -88 -17 -76 -8 17 12 36 52 25 52 -5 0 -10 -4
-10 -9 0 -5 -9 -7 -20 -4 -11 3 -20 0 -20 -6 0 -6 -5 -11 -11 -11 -7 0 -9 10
-7 24 3 16 1 23 -7 19 -15 -5 -28 41 -20 68 4 11 2 19 -4 19 -6 0 -12 19 -12
43 -1 23 -4 32 -6 20 -10 -52 -30 -12 -25 50 2 20 -14 23 -21 5 -2 -7 -8 -10
-12 -6 -5 5 1 16 12 25 20 18 38 109 23 118 -8 5 -6 27 10 140 6 39 11 77 11
85 2 20 68 181 81 197 6 7 8 20 4 28 -3 9 -2 14 3 11 15 -10 32 21 26 47 -5
18 -1 31 14 46 12 12 21 25 21 30 0 5 7 15 17 22 15 13 15 12 5 -8 -19 -35
-14 -40 12 -11 14 14 29 28 34 29 4 2 32 34 61 72 29 37 57 67 62 67 5 0 9 8
9 19 0 10 11 26 25 35 14 9 25 12 25 6 0 -16 70 22 71 39 2 30 4 36 17 59 7
12 19 22 27 22 22 0 18 -38 -5 -52 -27 -17 -25 -31 2 -22 30 9 51 31 38 39 -8
5 -6 40 4 52 1 1 21 -2 44 -8 33 -7 49 -6 72 6 30 15 41 29 18 20 -7 -3 -19
-1 -26 3 -17 11 -2 52 32 89 26 28 60 27 90 -3 18 -17 36 -11 36 12 0 10 -6
13 -19 9 -24 -7 -35 19 -15 36 13 10 17 10 25 -2 6 -10 9 -10 9 -1 0 7 11 17
25 22 28 11 34 44 10 54 -18 6 -13 8 -148 -60 -123 -62 -236 -146 -357 -266
-178 -176 -259 -296 -377 -558 -20 -43 -70 -199 -92 -286 -19 -73 -40 -276
-45 -433 -4 -136 -7 -156 -23 -165 -10 -6 -20 -11 -23 -11 -3 0 -10 -4 -17 -8
-7 -4 -21 -2 -32 4 -15 10 -25 9 -51 -3 -17 -8 -42 -14 -55 -13 -47 6 -90 18
-110 31 -11 8 -26 14 -33 14 -25 0 6 -28 44 -40 19 -7 32 -16 29 -21 -8 -13
-55 -11 -55 2 0 6 -8 8 -19 4 -11 -3 -22 -1 -26 5 -3 5 -15 10 -26 10 -11 0
-31 17 -48 41 -16 22 -33 39 -37 39 -8 -2 -53 87 -54 106 0 6 -7 17 -15 24 -8
7 -15 21 -15 31 0 11 -4 19 -8 19 -45 0 -69 452 -36 680 24 170 95 440 135
510 5 8 23 42 40 75 42 81 122 197 184 270 29 33 62 72 75 87 13 15 59 58 102
95 44 37 87 81 94 96 8 15 19 25 24 22 6 -4 10 -1 10 5 0 7 7 10 15 6 9 -3 15
0 15 10 0 8 4 12 10 9 6 -3 10 1 10 10 0 9 4 14 9 10 5 -3 12 -1 15 4 3 5 15
7 26 4 12 -3 33 5 55 21 19 15 39 25 44 22 14 -9 61 52 61 79 0 35 23 82 52
104 15 12 29 35 33 51 4 17 10 30 15 30 5 0 12 9 15 20 4 11 31 47 62 80 30
33 52 64 48 70 -3 6 0 7 9 4 9 -3 16 -2 16 4 0 6 -5 12 -12 14 -8 3 -5 15 11
36 31 44 52 42 35 -2 -3 -9 -12 -16 -20 -16 -16 0 -19 -16 -5 -24 5 -4 12 0
14 6 3 7 6 3 6 -9 1 -15 8 -23 19 -24 13 0 14 -2 2 -6 -25 -10 -40 -36 -28
-50 15 -19 -1 -75 -24 -81 -10 -2 -17 -10 -15 -16 3 -6 -6 -12 -18 -12 -18 -1
-21 3 -19 22 2 19 -1 22 -15 15 -31 -17 -51 -48 -66 -102 -8 -30 -17 -64 -21
-76 -4 -14 -2 -23 5 -23 6 0 8 7 4 17 -5 12 -2 15 9 10 12 -4 14 -1 10 15 -4
18 -2 19 16 9 28 -15 31 -14 27 8 -2 12 5 22 21 30 21 9 29 21 25 43 0 4 6 5
14 2 9 -4 18 1 22 12 4 11 13 24 20 29 7 6 17 35 23 65 6 30 15 57 20 58 6 2
10 11 10 21 0 10 16 35 35 57 19 21 35 42 35 45 0 13 60 -5 77 -23 14 -16 18
-35 16 -91 l-2 -71 17 29 c18 29 62 121 62 128 0 2 -7 4 -15 4 -8 0 -15 -5
-15 -10 0 -6 -9 -2 -20 8 -21 19 -27 45 -10 45 7 0 7 6 0 19 -14 27 -13 51 3
51 7 0 28 13 47 28 19 16 54 41 78 56 23 14 42 33 42 42 0 9 6 14 13 12 24 -9
19 -61 -13 -127 -44 -90 -47 -99 -64 -158 -13 -45 -13 -51 0 -46 8 3 14 15 14
27 0 27 27 66 46 66 8 0 14 -3 15 -7 0 -5 2 -27 4 -49 3 -29 0 -46 -10 -54 -8
-7 -15 -19 -15 -26 0 -8 -6 -14 -13 -14 -8 0 -22 -9 -32 -20 -10 -11 -22 -20
-26 -20 -5 0 -25 -11 -45 -25 -45 -30 -54 -31 -61 -4 -5 19 -8 18 -34 -13 -15
-18 -29 -37 -29 -43 -1 -12 -36 -55 -45 -55 -3 0 -13 -7 -21 -15 -14 -13 -14
-15 0 -15 8 0 18 5 21 10 4 6 12 9 19 8 11 -3 16 0 69 47 16 14 33 23 38 20 5
-4 9 -2 9 3 0 14 88 64 100 57 5 -3 20 1 33 10 13 8 27 12 31 8 4 -5 13 -1 19
8 7 9 21 21 33 27 11 6 35 23 52 38 40 36 112 62 161 60 24 0 37 3 33 9 -3 6
2 4 11 -4 20 -16 49 -8 41 12 -3 8 2 20 11 27 13 10 15 9 16 -6 1 -11 1 -22 0
-26 -1 -9 58 8 100 30 22 11 34 23 31 32 -5 13 -3 13 11 1 9 -7 24 -11 32 -7
26 10 16 24 -17 25 -53 1 -90 15 -99 39 -7 19 -4 24 16 32 23 9 24 13 21 75
-2 46 -7 69 -19 78 -8 6 -19 28 -22 49 -6 30 -4 38 13 47 12 6 32 11 46 11 14
0 28 5 31 10 3 6 9 10 13 10 3 0 1 -5 -6 -12z m666 -29 c52 -46 62 -71 57
-136 -3 -30 -8 -59 -11 -65 -14 -23 -97 -49 -140 -44 -54 7 -114 31 -114 47 0
6 -8 17 -17 24 -13 10 -16 25 -14 66 1 30 6 56 9 59 4 3 14 18 22 34 33 65
142 73 208 15z m-867 -36 c6 -16 12 -61 13 -102 2 -58 6 -75 20 -83 17 -9 16
-10 -1 -24 -16 -12 -16 -13 -2 -14 18 0 29 -20 29 -48 0 -23 -33 -42 -59 -35
-11 3 -21 1 -21 -5 0 -5 -7 -12 -15 -16 -8 -3 -14 -2 -14 2 3 21 -4 22 -36 2
-20 -12 -42 -19 -50 -16 -8 3 -17 1 -20 -4 -10 -17 -43 -11 -70 13 -22 19 -26
31 -28 85 -2 55 -4 62 -19 58 -26 -6 -22 13 6 25 21 10 22 14 13 43 -5 17 -13
38 -18 48 -5 10 -3 21 6 28 8 7 15 9 15 6 0 -4 13 1 30 11 28 16 31 16 46 1
13 -13 16 -38 15 -132 -1 -115 -1 -116 23 -116 40 0 61 34 58 96 -1 30 2 63 7
72 7 14 5 21 -10 30 -27 17 -25 67 3 86 35 25 67 20 79 -11z m-301 -18 c0 -8
-9 -15 -20 -15 -13 0 -18 5 -14 15 4 8 12 15 20 15 8 0 14 -7 14 -15z m740
-60 c0 -8 -4 -15 -10 -15 -5 0 -10 7 -10 15 0 8 5 15 10 15 6 0 10 -7 10 -15z
m-380 -86 c0 -4 -7 -6 -15 -3 -8 4 -15 10 -15 15 0 4 7 6 15 3 8 -4 15 -10 15
-15z m-590 -20 c-7 -11 -14 -18 -17 -15 -3 3 0 12 7 21 18 21 23 19 10 -6z
m-80 -23 c0 -16 -65 -76 -83 -76 -7 0 3 9 21 20 17 11 32 28 32 38 0 10 3 22
7 25 11 12 23 8 23 -7z m-330 -326 c0 -5 -5 -10 -11 -10 -5 0 -7 5 -4 10 3 6
8 10 11 10 2 0 4 -4 4 -10z m1132 -17 c-6 -2 -9 -10 -6 -15 4 -7 2 -8 -5 -4
-13 9 -5 26 12 25 9 0 8 -2 -1 -6z m546 -5 c-6 -18 -28 -21 -28 -4 0 9 7 16
16 16 9 0 14 -5 12 -12z m-148 -62 c0 -11 -19 -15 -25 -6 -3 5 1 10 9 10 9 0
16 -2 16 -4z m70 -26 c0 -5 -4 -10 -10 -10 -5 0 -10 5 -10 10 0 6 5 10 10 10
6 0 10 -4 10 -10z m-1785 -180 c-3 -5 -10 -10 -16 -10 -5 0 -9 5 -9 10 0 6 7
10 16 10 8 0 12 -4 9 -10z m3289 -375 c3 -9 0 -15 -9 -15 -8 0 -15 7 -15 15 0
8 4 15 9 15 5 0 11 -7 15 -15z m106 -39 c0 -16 -19 -25 -37 -18 -23 8 -14 32
12 32 15 0 25 -6 25 -14z m-3637 -71 c-22 -17 -30 -11 -13 10 7 8 17 12 22 9
5 -3 1 -12 -9 -19z m917 12 c0 -2 -9 -14 -20 -27 -14 -16 -25 -20 -37 -14 -16
7 -15 8 5 12 13 2 26 10 29 18 4 12 23 21 23 11z m2854 -49 c-3 -5 -12 -4 -20
3 -7 6 -11 15 -8 21 3 5 12 4 20 -3 7 -6 11 -15 8 -21z m-2947 -16 c-21 -23
-22 -43 -2 -36 9 4 15 0 15 -10 0 -26 -40 -20 -41 7 0 12 -3 16 -6 10 -2 -7
-11 -13 -20 -13 -13 0 -13 2 1 15 8 8 19 15 24 15 6 0 12 7 16 15 3 8 11 15
17 15 8 0 6 -7 -4 -18z m3023 -12 c0 -5 -7 -10 -15 -10 -8 0 -15 5 -15 10 0 6
7 10 15 10 8 0 15 -4 15 -10z m-3889 -32 c-8 -23 -31 -37 -31 -19 0 6 5 11 10
11 6 0 10 7 10 15 0 8 4 15 10 15 5 0 6 -9 1 -22z m3926 6 c-3 -3 -12 -4 -19
-1 -8 3 -5 6 6 6 11 1 17 -2 13 -5z m44 -17 c-10 -9 -11 -8 -5 6 3 10 9 15 12
12 3 -3 0 -11 -7 -18z m-3241 -55 c0 -4 -9 -13 -20 -20 -17 -10 -20 -10 -20 2
0 8 8 17 18 19 9 3 18 5 20 6 1 0 2 -2 2 -7z m-60 -57 c-7 -8 -18 -15 -24 -15
-6 0 -2 7 8 15 25 19 32 19 16 0z m-46 -43 c-6 -4 -13 -14 -16 -23 -4 -9 -21
-27 -38 -39 l-32 -23 14 23 c16 28 71 80 78 74 2 -3 0 -8 -6 -12z m3681 -186
c12 -12 11 -15 -7 -20 -27 -6 -32 -2 -25 19 8 19 14 19 32 1z m-40 -47 c10
-14 1 -21 -19 -13 -9 3 -13 10 -10 15 7 12 21 11 29 -2z m-652 -37 c-5 -12 -7
-12 -15 2 -11 20 1 44 12 25 5 -6 6 -19 3 -27z m677 -2 c0 -5 -5 -10 -11 -10
-5 0 -7 5 -4 10 3 6 8 10 11 10 2 0 4 -4 4 -10z m-270 -10 c0 -5 -2 -10 -4
-10 -3 0 -8 5 -11 10 -3 6 -1 10 4 10 6 0 11 -4 11 -10z m300 -20 c0 -5 -5
-10 -11 -10 -5 0 -7 5 -4 10 3 6 8 10 11 10 2 0 4 -4 4 -10z m35 -40 c9 -16
11 -30 6 -30 -11 0 -31 32 -31 49 0 19 9 12 25 -19z m-770 -61 c11 -17 -13
-17 -30 1 -16 18 -16 18 4 13 12 -3 24 -9 26 -14z m-50 -20 c0 -9 -10 -14 -25
-13 -14 1 -29 -5 -33 -13 -5 -7 -13 -11 -18 -7 -6 4 -1 15 12 27 15 14 24 17
27 9 2 -7 8 -12 14 -12 6 0 7 7 4 16 -4 10 -1 14 6 12 7 -3 13 -11 13 -19z
m49 -44 c-14 -21 -24 -25 -70 -25 -29 0 -55 4 -58 9 -4 5 12 7 36 4 24 -2 39
-1 35 4 -5 4 7 13 25 19 48 18 50 17 32 -11z m106 15 c0 -5 -4 -10 -10 -10 -5
0 -10 5 -10 10 0 6 5 10 10 10 6 0 10 -4 10 -10z m780 -32 c0 -14 -12 -8 -31
14 -11 11 -19 23 -19 25 0 7 49 -32 50 -39z m-590 2 c0 -5 -5 -10 -11 -10 -5
0 -7 5 -4 10 3 6 8 10 11 10 2 0 4 -4 4 -10z m-150 -30 c0 -10 -14 -14 -37
-11 -7 1 -13 -6 -13 -15 0 -11 -5 -14 -16 -10 -9 3 -20 6 -25 6 -4 0 -6 7 -2
16 4 11 15 15 39 12 19 -2 34 0 34 4 0 4 5 8 10 8 6 0 10 -4 10 -10z m-20 -50
c0 -5 -4 -10 -10 -10 -5 0 -10 5 -10 10 0 6 5 10 10 10 6 0 10 -4 10 -10z
m1328 -18 l32 -16 -20 -20 c-47 -49 -71 -87 -105 -174 -21 -51 -35 -95 -32
-98 3 -3 8 5 12 17 4 13 13 29 19 35 6 7 22 29 36 48 14 20 33 36 43 36 9 0
17 2 17 4 0 2 3 13 7 23 6 16 5 16 -10 4 -34 -27 -16 -1 41 59 56 60 58 61
115 64 31 1 57 -1 57 -5 0 -4 10 -9 21 -11 25 -4 45 -46 107 -238 67 -202 96
-443 76 -619 -15 -127 -36 -241 -47 -258 -4 -7 -4 -21 2 -30 5 -10 6 -24 2
-33 -4 -8 -14 -42 -21 -75 -7 -33 -19 -67 -25 -75 -7 -8 -10 -20 -8 -27 2 -6
-1 -14 -6 -18 -6 -3 -8 0 -5 8 3 8 -1 17 -9 20 -11 4 -13 0 -10 -14 4 -14 0
-19 -17 -19 -20 0 -21 -3 -14 -27 4 -16 8 -46 7 -68 -1 -22 3 -43 9 -46 7 -4
7 -13 0 -25 -6 -11 -16 -35 -23 -54 -16 -44 -147 -176 -161 -162 -7 7 -33 -12
-77 -54 -57 -55 -71 -64 -104 -64 -50 0 -56 18 -64 181 -5 115 -4 129 11 135
11 4 13 10 7 18 -12 15 -24 129 -17 154 4 11 19 25 35 32 27 11 51 46 51 75 0
8 15 17 35 21 20 3 35 12 35 20 0 10 -16 6 -60 -16 -71 -36 -69 -35 -67 -10 1
11 5 20 9 20 4 0 8 10 8 23 -1 22 -1 22 -16 2 -8 -11 -18 -31 -21 -45 -4 -14
-12 -30 -19 -37 -10 -11 -14 -9 -18 5 -5 15 -25 272 -26 330 0 36 73 -11 95
-62 7 -17 14 -24 14 -15 2 26 -44 111 -160 298 -21 34 -39 66 -39 69 0 3 -7
13 -16 23 -9 10 -16 34 -17 53 -1 20 -5 36 -10 36 -5 0 -7 6 -4 14 3 8 -4 31
-15 52 -17 32 -21 59 -23 144 -1 58 -6 118 -10 134 -6 23 -5 27 5 21 10 -6 12
1 7 32 l-7 41 62 13 c61 14 108 44 108 69 0 7 18 30 40 52 22 22 40 34 40 27
0 -9 8 -5 22 9 25 25 54 23 116 -6z m-468 -54 c0 -14 -12 -8 -31 15 -10 12
-18 29 -19 37 0 15 49 -37 50 -52z m-790 42 c0 -5 -4 -10 -10 -10 -5 0 -10 5
-10 10 0 6 5 10 10 10 6 0 10 -4 10 -10z m-3554 -327 c-11 -11 -19 6 -11 24 8
17 8 17 12 0 3 -10 2 -21 -1 -24z m654 -293 c0 -5 -4 -10 -9 -10 -5 0 -24 -3
-42 -6 -34 -6 -34 -6 -9 9 29 18 60 21 60 7z m150 -140 c0 -5 -6 -10 -14 -10
-8 0 -18 5 -21 10 -3 6 3 10 14 10 12 0 21 -4 21 -10z m-270 -20 c0 -5 -2 -10
-4 -10 -3 0 -8 5 -11 10 -3 6 -1 10 4 10 6 0 11 -4 11 -10z m-125 -30 c-3 -5
-12 -7 -20 -3 -21 7 -19 13 6 13 11 0 18 -4 14 -10z m-771 -59 c3 -5 -1 -11
-9 -15 -15 -6 -29 7 -18 18 9 9 21 8 27 -3z m210 -26 c-6 -16 -24 -21 -24 -7
0 11 11 22 21 22 5 0 6 -7 3 -15z m4162 -12 c-10 -10 -19 5 -10 18 6 11 8 11
12 0 2 -7 1 -15 -2 -18z m-4126 -173 c0 -11 -4 -20 -10 -20 -5 0 -10 9 -10 20
0 11 5 20 10 20 6 0 10 -9 10 -20z m4140 4 c0 -8 -4 -12 -10 -9 -5 3 -10 10
-10 16 0 5 5 9 10 9 6 0 10 -7 10 -16z m30 -39 c0 -25 -15 -24 -16 1 -1 13 2
21 7 18 5 -3 9 -11 9 -19z m-90 -25 c0 -16 7 -33 16 -38 9 -5 14 -14 10 -21
-9 -14 -26 -14 -26 1 0 6 -7 19 -15 28 -8 9 -12 25 -8 38 8 32 23 27 23 -8z
m-3270 -10 c0 -5 -7 -10 -15 -10 -8 0 -15 5 -15 10 0 6 7 10 15 10 8 0 15 -4
15 -10z m157 -16 c8 -22 -11 -37 -36 -29 -23 7 -28 30 -8 38 23 10 38 7 44 -9z
m-138 -90 c-11 -14 -10 -18 6 -30 11 -8 25 -12 32 -10 15 6 18 -10 3 -19 -5
-3 -23 7 -40 22 -29 25 -30 28 -14 40 24 18 29 16 13 -3z m3282 -70 c-12 -19
-18 -40 -15 -46 4 -6 1 -9 -6 -6 -8 2 -18 12 -24 21 -9 13 -6 20 13 33 18 13
20 18 10 25 -10 6 -5 9 14 9 l29 0 -21 -36z m-3517 -10 c9 -23 8 -24 -14 -24
-11 0 -20 2 -20 4 0 12 13 36 20 36 4 0 11 -7 14 -16z m-214 -14 c0 -5 -4 -10
-10 -10 -5 0 -10 5 -10 10 0 6 5 10 10 10 6 0 10 -4 10 -10z m3817 -382 c-3
-8 -6 -5 -6 6 -1 11 2 17 5 13 3 -3 4 -12 1 -19z m8 -58 c3 -5 1 -10 -4 -10
-6 0 -11 5 -11 10 0 6 2 10 4 10 3 0 8 -4 11 -10z m21 -57 c-11 -11 -19 6 -11
24 8 17 8 17 12 0 3 -10 2 -21 -1 -24z m-4129 10 c35 -23 83 -91 83 -117 0
-12 9 -40 20 -61 24 -46 62 -166 56 -173 -9 -8 -26 10 -44 46 -10 20 -46 91
-79 157 -61 121 -79 165 -68 165 3 0 17 -8 32 -17z m260 -55 c-3 -8 -6 -5 -6
6 -1 11 2 17 5 13 3 -3 4 -12 1 -19z m95 -130 c-6 -6 -15 -8 -19 -4 -4 4 -1
11 7 16 19 12 27 3 12 -12z m68 -108 c0 -5 -5 -10 -11 -10 -5 0 -7 5 -4 10 3
6 8 10 11 10 2 0 4 -4 4 -10z m-90 -34 c0 -11 -19 -15 -25 -6 -3 5 1 10 9 10
9 0 16 -2 16 -4z m185 -118 c-9 -41 -25 -60 -25 -29 0 23 16 61 26 61 3 0 3
-15 -1 -32z m3645 17 c0 -8 -4 -15 -10 -15 -5 0 -10 7 -10 15 0 8 5 15 10 15
6 0 10 -7 10 -15z m-3720 -49 c0 -9 -4 -16 -9 -16 -10 0 -21 24 -21 47 0 13 2
13 15 -1 8 -8 15 -22 15 -30z m40 30 c0 -17 -14 -29 -23 -20 -8 8 3 34 14 34
5 0 9 -6 9 -14z m3750 -46 c0 -5 -5 -10 -11 -10 -5 0 -7 5 -4 10 3 6 8 10 11
10 2 0 4 -4 4 -10z m-3790 -19 c0 -5 3 -17 6 -26 4 -10 2 -15 -7 -13 -8 2 -13
-4 -11 -12 3 -12 1 -12 -9 -3 -13 13 -4 63 11 63 6 0 10 -4 10 -9z m70 -28 c0
-7 -8 -13 -17 -13 -13 0 -14 3 -6 11 6 6 9 19 6 28 -4 14 -3 14 6 1 6 -8 11
-21 11 -27z m3690 -45 c0 -16 -3 -19 -11 -11 -6 6 -8 16 -5 22 11 17 16 13 16
-11z m-10 -68 c0 -5 -4 -10 -10 -10 -5 0 -10 5 -10 10 0 6 5 10 10 10 6 0 10
-4 10 -10z m150 -60 c0 -5 -2 -10 -4 -10 -3 0 -8 5 -11 10 -3 6 -1 10 4 10 6
0 11 -4 11 -10z m87 -292 c-3 -7 -5 -2 -5 12 0 14 2 19 5 13 2 -7 2 -19 0 -25z
m-90 -80 c-3 -7 -5 -2 -5 12 0 14 2 19 5 13 2 -7 2 -19 0 -25z m-3597 -319 c0
-5 -4 -9 -10 -9 -5 0 -10 7 -10 16 0 8 5 12 10 9 6 -3 10 -10 10 -16z m3420
-80 c0 -11 -4 -17 -10 -14 -5 3 -10 13 -10 21 0 8 5 14 10 14 6 0 10 -9 10
-21z m380 -120 c0 -5 -4 -9 -10 -9 -5 0 -10 7 -10 16 0 8 5 12 10 9 6 -3 10
-10 10 -16z m-20 -39 c0 -13 -5 -18 -15 -14 -11 5 -12 9 -2 20 16 18 17 17 17
-6z m-2280 -14 c0 -3 -4 -8 -10 -11 -5 -3 -10 -1 -10 4 0 6 5 11 10 11 6 0 10
-2 10 -4z m2210 -25 c0 -6 9 -8 21 -6 20 4 20 3 5 -20 -9 -13 -16 -31 -16 -39
0 -7 -7 -13 -16 -12 -9 0 -19 -5 -21 -11 -3 -8 4 -13 17 -13 16 0 20 -4 16
-16 -3 -9 -6 -20 -6 -25 0 -6 -4 -7 -10 -4 -5 3 -10 -1 -10 -9 0 -26 29 -18
36 9 3 14 11 25 16 25 6 0 8 -7 4 -15 -6 -17 13 -65 26 -65 4 0 8 7 8 15 0 8
-5 15 -12 15 -9 0 -9 3 0 12 15 15 16 48 2 48 -5 0 -10 7 -10 16 0 8 4 13 9 9
12 -7 31 26 31 53 0 30 35 35 36 5 2 -24 -11 -32 -19 -10 -4 7 -6 6 -6 -4 -1
-9 6 -20 15 -23 10 -4 14 -13 10 -24 -5 -14 -3 -14 9 2 14 19 15 19 17 -10 2
-43 2 -47 -6 -71 -5 -17 -3 -23 8 -23 28 0 36 -33 15 -59 -18 -22 -19 -22 -19
-3 0 11 5 22 12 24 7 3 8 9 3 18 -6 10 -11 8 -18 -11 -6 -13 -9 -31 -8 -41 1
-9 -3 -19 -9 -23 -5 -3 -10 -18 -9 -33 l1 -27 10 28 c13 35 32 36 24 1 -7 -26
-45 -86 -58 -92 -14 -6 -8 -32 7 -32 8 0 15 5 15 12 0 6 11 26 25 44 14 18 25
37 25 43 0 6 4 11 9 11 5 0 13 9 16 20 3 11 11 20 16 20 16 0 10 -25 -11 -48
-11 -12 -20 -30 -20 -42 0 -11 -7 -23 -15 -26 -8 -4 -15 -14 -15 -23 0 -9 -13
-29 -30 -44 -17 -17 -30 -39 -30 -53 0 -25 15 -33 23 -11 3 7 6 6 6 -5 1 -9
-3 -19 -8 -22 -5 -3 -7 -15 -4 -25 3 -10 0 -22 -6 -25 -14 -9 -14 -49 0 -63 8
-8 8 -17 0 -32 -8 -15 -8 -21 -1 -21 8 0 8 -6 0 -20 -6 -11 -15 -18 -20 -15
-16 10 -23 -44 -9 -61 11 -13 9 -23 -11 -59 -13 -24 -21 -48 -17 -52 5 -4 12
-1 17 7 8 12 10 11 10 -6 0 -12 -7 -27 -15 -34 -8 -7 -15 -16 -15 -21 0 -16
29 -10 40 9 10 14 11 13 6 -8 -3 -14 -6 -38 -6 -53 0 -17 -4 -26 -10 -22 -6 4
-8 10 -5 15 3 4 3 15 -1 23 -7 18 -44 11 -44 -9 0 -7 6 -11 13 -9 7 3 13 -4
14 -17 1 -13 4 -35 6 -50 3 -16 1 -28 -4 -28 -5 0 -9 7 -9 15 0 19 -7 19 -26
1 -9 -10 -11 -17 -4 -21 6 -4 8 -21 4 -42 -5 -26 -4 -34 5 -29 14 9 14 6 -4
-37 -8 -20 -15 -44 -15 -54 1 -17 1 -17 14 0 7 9 16 17 20 17 12 0 5 -25 -19
-75 -14 -27 -25 -64 -25 -80 0 -17 -8 -42 -17 -55 -10 -14 -17 -27 -15 -30 4
-11 -20 -70 -29 -70 -6 0 -8 -4 -5 -8 3 -5 -2 -21 -10 -36 -17 -34 -18 -47 -1
-25 7 8 20 18 30 22 15 6 18 3 15 -16 -2 -12 -9 -21 -16 -19 -8 1 -11 -2 -7
-8 3 -6 -1 -24 -9 -42 -18 -36 -20 -58 -6 -58 6 0 10 7 10 15 0 8 7 15 16 15
13 0 12 -5 -5 -34 -24 -39 -27 -58 -7 -50 24 9 27 -12 6 -39 -11 -14 -20 -30
-20 -36 0 -6 -3 -11 -8 -11 -9 0 -30 -46 -38 -88 -4 -21 -3 -32 5 -32 6 0 11
8 11 18 1 18 22 52 34 52 3 0 6 -7 6 -15 0 -23 27 -18 33 7 4 12 9 19 12 16 4
-3 2 -16 -5 -27 -15 -29 -6 -39 32 -37 28 1 56 26 29 26 -6 0 -11 5 -11 10 0
6 5 9 12 8 6 -2 18 11 27 27 19 36 33 47 42 34 4 -7 13 -3 24 8 13 13 20 14
23 5 7 -23 21 -12 25 21 2 19 4 10 5 -25 2 -60 17 -77 28 -33 3 14 10 25 15
25 5 0 9 14 9 31 0 24 4 30 15 25 15 -6 16 0 19 117 1 30 6 44 18 49 11 4 15
13 12 23 -3 8 -2 15 4 15 20 0 20 39 0 52 -19 13 -19 13 2 36 22 23 64 30 75
11 4 -5 -1 -19 -11 -30 -15 -17 -16 -22 -4 -44 19 -35 40 -32 40 5 0 17 4 30
9 30 12 0 6 91 -7 99 -16 10 -26 116 -12 140 8 16 8 26 0 35 -14 18 -3 158 13
168 8 5 6 11 -7 21 -12 9 -15 16 -8 21 16 10 38 -3 51 -30 14 -32 14 -51 -1
-57 -10 -3 -10 -7 -1 -17 9 -10 13 -5 18 22 5 28 14 38 41 48 21 9 34 21 34
32 0 36 20 17 21 -19 0 -21 4 -47 9 -58 8 -18 9 -17 9 7 1 33 19 46 28 21 4
-10 11 -21 16 -24 6 -4 6 -12 1 -20 -9 -14 -10 -28 -16 -179 -1 -47 -6 -88
-11 -91 -4 -3 -9 -55 -11 -115 -2 -60 -9 -140 -15 -179 -7 -38 -15 -81 -16
-95 -6 -45 -153 -145 -355 -241 -36 -17 -82 -40 -102 -51 -21 -11 -42 -16 -48
-13 -5 3 -10 2 -10 -3 0 -5 -18 -12 -40 -16 -22 -3 -56 -14 -76 -24 -28 -13
-38 -14 -41 -5 -5 14 -35 2 -60 -22 -22 -23 -439 -75 -466 -58 -6 3 -69 7
-141 8 -72 1 -171 7 -221 14 -217 27 -254 31 -315 37 -245 22 -583 109 -795
204 -11 5 -36 16 -56 24 -64 25 -251 137 -335 199 -78 59 -164 160 -164 193 0
13 4 13 31 -3 17 -10 41 -27 53 -38 25 -23 76 -48 83 -41 3 2 -6 10 -19 18
-42 23 -146 112 -153 131 -3 9 -13 17 -20 17 -18 0 -49 46 -40 60 3 5 -1 10
-10 10 -12 0 -15 6 -10 19 4 13 -1 24 -17 35 -20 14 -21 16 -4 16 11 0 16 3
12 7 -4 5 -11 8 -14 8 -20 0 -47 33 -49 58 -1 20 2 25 11 18 19 -16 33 2 32
41 -2 42 -16 65 -16 25 0 -23 -3 -25 -22 -18 -12 4 -24 13 -26 19 -2 7 3 10
11 6 10 -3 20 6 31 27 17 34 20 47 9 36 -3 -4 -13 -1 -21 6 -12 9 -16 9 -19 0
-3 -7 -9 -13 -14 -13 -6 0 -8 4 -4 9 3 5 1 12 -5 16 -5 3 -10 24 -10 46 0 21
-3 39 -7 39 -5 1 -19 9 -31 20 -19 16 -22 26 -17 50 8 35 26 38 54 9 13 -14
26 -19 40 -14 18 5 21 3 18 -16 -2 -12 2 -38 9 -58 9 -27 18 -36 33 -35 21 1
21 0 5 -23 -15 -24 -15 -25 8 -18 12 4 31 17 41 29 15 16 18 17 13 4 -3 -10
-1 -19 4 -19 40 -5 58 -20 74 -60 9 -22 21 -46 26 -52 6 -7 17 -21 25 -32 15
-20 15 -20 30 0 15 19 16 19 21 -3 4 -13 14 -22 25 -22 11 0 19 -4 19 -10 0
-5 7 -10 15 -10 8 0 15 -5 15 -11 0 -5 8 -9 18 -7 10 1 30 -5 45 -15 27 -17
53 -15 42 4 -7 11 -3 11 19 3 9 -3 16 -14 17 -23 1 -9 4 -5 8 9 7 23 11 25 63
22 41 -3 59 1 72 13 9 9 16 12 16 6 0 -16 38 -51 54 -51 8 0 24 16 36 36 18
28 27 34 45 30 27 -7 85 20 85 40 0 18 10 18 40 -3 17 -12 25 -14 28 -4 5 16
32 -5 32 -26 0 -23 24 -9 30 18 4 17 14 25 33 27 20 2 27 9 27 24 0 16 3 18
13 9 8 -6 16 -8 19 -6 3 3 13 -6 22 -20 20 -30 46 -33 46 -5 0 22 10 26 28 8
8 -8 15 -8 27 2 14 12 20 12 38 0 21 -12 21 -12 6 6 -11 12 -14 26 -9 39 6 18
7 18 17 1 13 -24 69 -19 67 7 -2 17 6 21 38 18 10 -1 26 2 36 8 15 8 25 6 43
-10 19 -16 25 -18 34 -7 20 27 76 60 91 54 9 -3 23 -2 33 3 10 6 23 6 31 1 9
-5 19 -5 27 2 7 6 24 8 38 6 17 -4 25 -1 25 8 0 8 6 11 15 8 10 -4 15 0 15 12
0 9 3 14 7 11 8 -8 34 13 28 22 -2 4 2 25 10 47 12 33 14 35 15 14 1 -16 4
-20 7 -10 4 8 12 20 19 25 6 6 15 27 18 48 4 21 11 35 17 32 5 -4 9 0 9 8 0 8
7 17 15 21 8 3 15 1 15 -4 0 -16 25 0 36 23 5 12 16 21 23 19 18 -4 43 18 37
33 -4 11 1 13 47 16 17 1 27 11 36 35 7 19 19 34 27 34 12 0 11 -7 -5 -39
l-20 -39 20 5 c14 4 20 1 17 -8 -1 -8 2 -14 7 -15 6 0 9 7 7 17 -2 10 1 27 7
36 10 17 10 17 11 -2 0 -17 2 -17 10 -5 9 13 11 13 19 0 6 -8 13 -12 16 -8 4
3 -1 18 -10 32 -19 29 -15 34 10 10 15 -15 15 -14 9 10 -5 21 -1 32 20 51 l26
24 0 -24 c0 -13 -5 -36 -10 -51 -9 -24 -9 -25 5 -14 8 7 15 19 15 27 0 7 8 23
19 34 16 18 19 18 31 3 11 -12 11 -20 2 -35 -10 -15 -9 -19 2 -19 8 0 21 6 28
13 7 7 26 18 42 25 16 7 26 16 22 19 -3 3 2 12 12 19 9 7 17 25 17 41 0 23 4
28 25 29 14 0 30 1 36 2 15 2 34 76 27 102 -4 14 0 20 11 20 9 0 13 6 10 15
-7 16 34 107 45 101 4 -3 13 8 20 24 7 16 23 39 36 52 14 13 25 31 25 40 0 21
20 68 37 89 8 9 16 29 19 45 9 53 64 142 64 105z m-2256 -36 c-4 -8 -10 -15
-15 -15 -4 0 -6 7 -3 15 4 8 10 15 15 15 4 0 6 -7 3 -15z m2326 -15 c0 -5 -5
-10 -11 -10 -5 0 -7 5 -4 10 3 6 8 10 11 10 2 0 4 -4 4 -10z m-600 -144 c0 -3
-4 -8 -10 -11 -5 -3 -10 -1 -10 4 0 6 5 11 10 11 6 0 10 -2 10 -4z m720 -66
c0 -5 -4 -10 -10 -10 -5 0 -10 5 -10 10 0 6 5 10 10 10 6 0 10 -4 10 -10z
m-1516 -86 c10 -25 1 -27 -19 -4 -15 17 -16 20 -3 20 9 0 19 -7 22 -16z m276
-14 c0 -5 7 -10 15 -10 8 0 15 -7 15 -15 0 -23 -16 -18 -34 10 -9 14 -12 25
-6 25 5 0 10 -4 10 -10z m-1420 -10 c0 -5 -4 -10 -10 -10 -5 0 -10 5 -10 10 0
6 5 10 10 10 6 0 10 -4 10 -10z m128 -7 c-4 -22 -22 -20 -26 1 -2 10 3 16 13
16 10 0 15 -7 13 -17z m-51 -25 c-3 -8 -6 -5 -6 6 -1 11 2 17 5 13 3 -3 4 -12
1 -19z m1083 7 c7 -9 8 -15 2 -15 -5 0 -12 7 -16 15 -3 8 -4 15 -2 15 2 0 9
-7 16 -15z m-1330 -68 c0 -11 -41 -49 -46 -44 -4 4 4 15 17 26 25 21 29 23 29
18z m1430 -17 c0 -5 -4 -10 -10 -10 -5 0 -10 5 -10 10 0 6 5 10 10 10 6 0 10
-4 10 -10z m1400 -10 c0 -5 -4 -10 -10 -10 -5 0 -10 5 -10 10 0 6 5 10 10 10
6 0 10 -4 10 -10z m-2618 -32 c-7 -7 -12 -19 -12 -28 0 -9 -8 -16 -17 -16 -10
-1 -26 -4 -35 -9 -11 -4 -18 -3 -18 4 0 6 9 11 20 11 11 0 20 5 20 10 0 14 40
53 48 46 3 -4 0 -12 -6 -18z m2146 -8 c-7 -11 -16 -20 -19 -20 -4 0 -5 9 -2
20 3 11 12 20 19 20 12 0 12 -4 2 -20z m-153 0 c3 -5 -1 -10 -10 -10 -9 0 -13
5 -10 10 3 6 8 10 10 10 2 0 7 -4 10 -10z m40 -20 c3 -5 2 -10 -4 -10 -5 0
-13 5 -16 10 -3 6 -2 10 4 10 5 0 13 -4 16 -10z m-2432 -13 c7 -19 -4 -33 -31
-40 -22 -5 -23 -4 -8 12 9 10 16 23 16 29 0 16 17 15 23 -1z m2477 5 c0 -5 -9
-19 -20 -32 -23 -26 -25 -22 -8 15 11 24 28 34 28 17z m-1055 -58 c0 -22 -5
-34 -14 -34 -9 0 -11 6 -5 18 4 9 8 27 8 39 2 34 11 15 11 -23z m1532 24 c-3
-8 -6 -5 -6 6 -1 11 2 17 5 13 3 -3 4 -12 1 -19z m-2577 -9 c0 -6 -4 -7 -10
-4 -5 3 -10 11 -10 16 0 6 5 7 10 4 6 -3 10 -11 10 -16z m-565 -20 c11 -17 -1
-21 -15 -4 -8 9 -8 15 -2 15 6 0 14 -5 17 -11z m2555 -25 c0 -14 -21 -19 -33
-7 -9 9 13 34 24 27 5 -3 9 -12 9 -20z m610 6 c0 -5 -4 -10 -10 -10 -5 0 -10
5 -10 10 0 6 5 10 10 10 6 0 10 -4 10 -10z m-1580 -53 c0 -5 -4 -5 -10 -2 -5
3 -10 14 -10 23 0 15 2 15 10 2 5 -8 10 -19 10 -23z m160 -3 c0 -8 -4 -12 -10
-9 -5 3 -10 10 -10 16 0 5 5 9 10 9 6 0 10 -7 10 -16z m-1170 -19 c0 -8 -2
-15 -4 -15 -2 0 -6 7 -10 15 -3 8 -1 15 4 15 6 0 10 -7 10 -15z m33 -25 c-3
-11 -9 -20 -13 -20 -5 0 -6 9 -3 20 3 11 9 20 13 20 5 0 6 -9 3 -20z m2524
-66 c-3 -3 -12 -4 -19 -1 -8 3 -5 6 6 6 11 1 17 -2 13 -5z m-2000 -41 c-17
-18 -22 -8 -11 22 5 12 10 13 17 6 8 -8 6 -16 -6 -28z m1990 -30 c-3 -10 -5
-4 -5 12 0 17 2 24 5 18 2 -7 2 -21 0 -30z m-2390 -5 c-3 -7 -5 -2 -5 12 0 14
2 19 5 13 2 -7 2 -19 0 -25z m2373 -12 c0 -3 -4 -8 -10 -11 -5 -3 -10 -1 -10
4 0 6 5 11 10 11 6 0 10 -2 10 -4z m-2290 -38 c0 -19 -2 -20 -10 -8 -13 19
-13 30 0 30 6 0 10 -10 10 -22z m3167 -1 c6 0 17 -12 24 -26 l13 -26 7 35 c6
35 6 35 8 5 1 -16 4 -65 7 -107 11 -159 -42 -345 -139 -488 -40 -58 -139 -178
-172 -209 l-26 -24 6 24 c14 60 55 394 56 464 1 33 5 80 9 103 5 29 3 64 -6
100 -14 60 -18 109 -8 99 11 -11 31 17 26 37 -3 13 -1 17 6 12 7 -4 12 -13 12
-21 0 -18 14 -26 33 -19 9 3 14 13 11 22 -5 15 -4 16 8 1 7 -9 29 -18 48 -22
19 -3 29 -3 23 0 -7 2 -13 13 -13 23 0 21 18 31 40 23 8 -3 20 -6 27 -6z
m-3307 -7 c0 -5 -4 -10 -10 -10 -5 0 -10 5 -10 10 0 6 5 10 10 10 6 0 10 -4
10 -10z m-662 -20 c7 -11 9 -20 4 -20 -4 0 -13 9 -20 20 -7 11 -9 20 -4 20 4
0 13 -9 20 -20z m3438 -107 c-10 -10 -19 5 -10 18 6 11 8 11 12 0 2 -7 1 -15
-2 -18z m-321 -832 c-3 -6 -11 -8 -17 -5 -6 4 -5 9 3 15 16 10 23 4 14 -10z"/>
<path d="M2960 7830 c-8 -16 -8 -18 4 -14 17 6 30 34 16 34 -5 0 -14 -9 -20
-20z"/>
<path d="M4030 7730 c-13 -8 -13 -10 2 -10 9 0 20 5 23 10 8 13 -5 13 -25 0z"/>
<path d="M3975 7710 c-3 -5 -1 -10 4 -10 6 0 11 5 11 10 0 6 -2 10 -4 10 -3 0
-8 -4 -11 -10z"/>
<path d="M4090 7691 c0 -5 -15 -7 -34 -4 -19 2 -38 -2 -42 -8 -4 -8 1 -9 16
-4 13 4 20 3 17 -2 -6 -9 52 -17 111 -15 17 0 32 -3 32 -6 0 -4 19 -7 43 -7
23 0 57 -4 76 -9 26 -6 32 -5 26 4 -5 9 -4 11 3 6 7 -4 28 0 47 10 19 9 42 14
50 10 8 -3 15 -3 15 0 0 12 -48 20 -75 13 -57 -16 -176 -17 -182 -2 -4 10 -9
11 -18 3 -10 -8 -23 -7 -49 4 -20 8 -36 11 -36 7z"/>
<path d="M3973 7675 c-13 -7 -20 -15 -15 -20 4 -4 -2 -5 -13 -1 -14 5 -17 4
-10 -3 14 -14 52 -3 60 16 7 21 4 22 -22 8z"/>
<path d="M2756 7658 c-21 -35 -39 -97 -32 -115 4 -8 1 -22 -5 -29 -9 -11 -8
-14 4 -14 8 0 17 8 21 18 5 17 26 52 36 62 3 3 11 17 18 33 9 22 9 32 0 47
-16 26 -24 25 -42 -2z"/>
<path d="M3664 7650 c-23 -3 -53 -14 -67 -23 -15 -9 -41 -17 -60 -17 -18 0
-37 -4 -42 -8 -16 -14 -114 -33 -190 -36 -76 -4 -100 -11 -127 -34 -22 -19
-23 -29 -3 -29 8 0 15 7 15 15 0 10 9 13 35 10 19 -2 36 0 38 5 2 7 25 9 112
8 16 0 34 4 39 9 6 6 22 10 37 10 15 0 32 7 39 15 7 8 29 15 49 15 20 0 45 6
56 14 11 7 45 14 75 15 126 3 201 8 208 15 4 4 -13 7 -38 5 -25 -2 -51 1 -58
5 -7 4 -22 6 -35 5 -12 -2 -26 -1 -32 2 -5 3 -29 3 -51 -1z"/>
<path d="M3895 7630 c-3 -5 1 -10 9 -10 9 0 16 5 16 10 0 6 -4 10 -9 10 -6 0
-13 -4 -16 -10z"/>
<path d="M4235 7630 c3 -5 8 -10 11 -10 2 0 4 5 4 10 0 6 -5 10 -11 10 -5 0
-7 -4 -4 -10z"/>
<path d="M3070 7520 c-13 -9 -13 -10 0 -10 8 0 22 5 30 10 13 9 13 10 0 10 -8
0 -22 -5 -30 -10z"/>
<path d="M3038 7504 c-3 -3 -24 -7 -46 -9 -22 -2 -57 -16 -77 -30 -45 -30 -44
-30 30 -5 32 11 66 20 75 20 10 0 20 7 24 15 6 16 3 19 -6 9z"/>
<path d="M3210 7496 c0 -2 7 -6 15 -10 8 -3 15 -1 15 4 0 6 -7 10 -15 10 -8 0
-15 -2 -15 -4z"/>
<path d="M2616 7441 c-4 -6 -4 -11 -1 -11 4 0 -4 -14 -16 -31 l-22 -32 39 7
c51 9 94 26 94 37 0 5 -12 6 -26 3 -21 -5 -31 -2 -44 16 -11 15 -19 19 -24 11z"/>
<path d="M3798 7113 c7 -3 16 -2 19 1 4 3 -2 6 -13 5 -11 0 -14 -3 -6 -6z"/>
<path d="M2490 7095 c-24 -14 -24 -14 -4 -15 12 0 24 7 28 15 6 18 7 18 -24 0z"/>
<path d="M3628 7083 c7 -3 16 -2 19 1 4 3 -2 6 -13 5 -11 0 -14 -3 -6 -6z"/>
<path d="M3578 7073 c6 -2 18 -2 25 0 6 3 1 5 -13 5 -14 0 -19 -2 -12 -5z"/>
<path d="M2290 6975 c-11 -13 -10 -14 4 -9 9 3 16 10 16 15 0 13 -6 11 -20 -6z"/>
<path d="M2340 6920 c0 -5 5 -10 11 -10 5 0 7 5 4 10 -3 6 -8 10 -11 10 -2 0
-4 -4 -4 -10z"/>
<path d="M3127 6893 c-30 -12 -35 -18 -26 -29 6 -8 15 -11 20 -8 5 3 9 0 9 -5
0 -6 5 -11 11 -11 6 0 8 9 3 22 -6 19 -4 21 7 11 9 -8 20 -9 29 -3 13 8 13 11
0 24 -13 13 -20 12 -53 -1z"/>
<path d="M5290 6849 c0 -5 5 -7 10 -4 6 3 10 8 10 11 0 2 -4 4 -10 4 -5 0 -10
-5 -10 -11z"/>
<path d="M2116 6834 c-11 -7 -16 -17 -13 -21 4 -4 15 1 24 10 22 21 14 30 -11
11z"/>
<path d="M5300 6820 c0 -5 5 -10 10 -10 6 0 10 5 10 10 0 6 -4 10 -10 10 -5 0
-10 -4 -10 -10z"/>
<path d="M2141 6794 c0 -11 3 -14 6 -6 3 7 2 16 -1 19 -3 4 -6 -2 -5 -13z"/>
<path d="M2195 6800 c-3 -5 -2 -10 4 -10 5 0 13 5 16 10 3 6 2 10 -4 10 -5 0
-13 -4 -16 -10z"/>
<path d="M5987 6539 c7 -7 15 -10 18 -7 3 3 -2 9 -12 12 -14 6 -15 5 -6 -5z"/>
<path d="M1787 6499 c-3 -13 -1 -19 6 -16 15 5 22 37 9 37 -5 0 -12 -9 -15
-21z"/>
<path d="M1824 6489 c-3 -6 -2 -15 3 -20 5 -5 9 -1 10 11 2 22 -2 25 -13 9z"/>
<path d="M1775 6460 c-3 -5 -1 -10 4 -10 6 0 11 5 11 10 0 6 -2 10 -4 10 -3 0
-8 -4 -11 -10z"/>
<path d="M1845 6420 c3 -5 8 -10 11 -10 2 0 4 5 4 10 0 6 -5 10 -11 10 -5 0
-7 -4 -4 -10z"/>
<path d="M1751 6406 c-10 -12 -8 -13 8 -9 12 3 18 9 15 14 -7 12 -10 11 -23
-5z"/>
<path d="M2360 6209 c-17 -30 -6 -34 14 -4 9 14 12 25 7 25 -6 0 -15 -9 -21
-21z"/>
<path d="M2231 6164 c0 -11 3 -14 6 -6 3 7 2 16 -1 19 -3 4 -6 -2 -5 -13z"/>
<path d="M5450 6150 c0 -5 7 -10 15 -10 8 0 15 5 15 10 0 6 -7 10 -15 10 -8 0
-15 -4 -15 -10z"/>
<path d="M5210 5930 c-13 -8 -12 -10 3 -10 9 0 17 5 17 10 0 12 -1 12 -20 0z"/>
<path d="M4630 5900 c-13 -8 -13 -10 2 -10 9 0 20 5 23 10 8 13 -5 13 -25 0z"/>
<path d="M4805 5880 c3 -5 8 -10 11 -10 2 0 4 5 4 10 0 6 -5 10 -11 10 -5 0
-7 -4 -4 -10z"/>
<path d="M5678 5863 c7 -3 16 -2 19 1 4 3 -2 6 -13 5 -11 0 -14 -3 -6 -6z"/>
<path d="M5840 5854 c0 -8 5 -12 10 -9 6 4 8 11 5 16 -9 14 -15 11 -15 -7z"/>
<path d="M4710 5850 c0 -5 -8 -6 -17 -3 -16 6 -16 5 -4 -10 12 -15 11 -17 -2
-17 -9 0 -19 5 -22 10 -5 8 -11 7 -21 -1 -7 -6 -12 -14 -10 -18 3 -4 -11 -11
-29 -17 -19 -6 -32 -7 -29 -2 3 4 -5 8 -18 8 -13 0 -32 3 -43 6 -16 4 -21 0
-22 -16 -2 -18 2 -21 23 -16 14 4 24 2 24 -4 0 -5 -7 -10 -16 -10 -10 0 -14
-5 -10 -16 3 -8 2 -13 -3 -10 -11 7 -22 -20 -15 -37 2 -7 -11 -30 -31 -51 -43
-46 -46 -67 -4 -32 20 17 38 24 50 21 13 -4 37 10 81 50 118 105 143 130 156
153 11 20 10 22 -13 22 -14 0 -25 -4 -25 -10z m-99 -105 c-43 -19 -57 -19 -41
0 7 8 27 15 44 15 l31 -1 -34 -14z m-51 -45 c12 -8 11 -10 -7 -10 -13 0 -23
-6 -23 -14 0 -16 -18 -31 -26 -23 -8 7 18 57 30 57 6 0 18 -5 26 -10z"/>
<path d="M4414 5777 c-16 -16 -41 -35 -57 -43 -22 -12 -26 -19 -21 -39 4 -17
2 -25 -7 -25 -7 0 -10 -3 -7 -6 4 -3 17 0 30 7 12 7 26 12 31 11 4 -1 2 7 -5
18 -7 10 -9 23 -5 27 5 4 12 2 16 -5 6 -10 11 -10 21 2 7 9 16 13 21 10 5 -3
9 0 9 5 0 6 5 11 10 11 19 0 10 -23 -26 -66 -19 -24 -42 -44 -49 -44 -8 0 -20
-10 -26 -22 -11 -22 -11 -22 7 -7 10 9 24 15 30 12 11 -4 64 50 64 66 0 6 10
17 22 25 12 9 18 16 13 16 -6 0 -4 4 4 9 12 8 12 12 3 24 -7 8 -11 20 -10 27
6 25 -39 16 -68 -13z"/>
<path d="M5977 5804 c-8 -8 1 -24 14 -24 5 0 9 7 9 15 0 15 -12 20 -23 9z"/>
<path d="M5767 5763 c-10 -9 -9 -23 2 -23 5 0 11 7 15 15 5 15 -5 20 -17 8z"/>
<path d="M4264 5726 c-10 -8 -16 -17 -13 -20 3 -3 14 3 24 14 21 23 17 26 -11
6z"/>
<path d="M2046 5624 c-4 -9 -4 -19 -1 -22 2 -3 7 3 11 12 4 9 4 19 1 22 -2 3
-7 -3 -11 -12z"/>
<path d="M4918 5489 c-7 -5 -26 -9 -42 -9 -15 0 -45 -9 -65 -20 -20 -10 -55
-24 -78 -30 -23 -6 -49 -17 -57 -25 -8 -8 -19 -15 -25 -15 -6 0 -11 -4 -11
-10 0 -5 -6 -10 -13 -10 -18 0 -57 -55 -57 -80 0 -24 18 -27 27 -3 4 9 14 24
23 33 10 10 19 21 21 26 8 17 64 62 88 69 22 7 23 5 17 -19 -5 -19 -1 -29 13
-37 10 -7 16 -19 14 -28 -2 -9 3 -25 12 -36 9 -12 13 -14 10 -5 -3 9 1 24 8
34 14 19 15 18 34 -1 12 -12 25 -28 29 -36 5 -9 28 -18 52 -20 24 -3 48 -10
55 -15 12 -9 52 1 89 23 20 12 60 123 47 130 -5 4 -9 13 -9 21 0 21 34 17 55
-6 10 -11 23 -20 30 -20 6 0 17 -12 24 -26 9 -21 14 -24 26 -14 12 10 15 9 15
-5 0 -10 3 -15 6 -12 4 3 14 2 24 -3 10 -6 35 -6 61 -1 24 5 37 9 29 10 -8 1
-30 15 -48 32 -44 41 -156 99 -192 99 -16 0 -31 4 -34 9 -7 11 -160 11 -178 0z
m-98 -102 c0 -13 -8 -31 -18 -40 -17 -16 -19 -16 -20 0 -1 22 18 63 30 63 4 0
8 -11 8 -23z m113 14 c12 -1 4 -44 -8 -48 -6 -2 -19 3 -28 10 -22 15 -13 46
11 42 9 -2 21 -4 25 -4z m132 -50 c3 -5 1 -12 -5 -16 -5 -3 -10 1 -10 9 0 18
6 21 15 7z"/>
<path d="M2325 5340 c3 -5 8 -10 11 -10 2 0 4 5 4 10 0 6 -5 10 -11 10 -5 0
-7 -4 -4 -10z"/>
<path d="M6120 5330 c-13 -8 -13 -11 1 -25 15 -15 17 -15 21 9 6 28 1 31 -22
16z"/>
<path d="M2372 5300 c-10 -16 -10 -20 1 -20 7 0 13 9 14 20 1 11 1 20 0 20 -1
0 -8 -9 -15 -20z"/>
<path d="M3190 5293 c0 -17 70 -55 87 -48 17 6 17 7 0 16 -36 21 -87 39 -87
32z"/>
<path d="M6090 5270 c0 -19 3 -21 12 -12 9 9 9 15 0 24 -9 9 -12 7 -12 -12z"/>
<path d="M4850 5230 c0 -12 37 -12 65 0 15 7 10 9 -22 9 -24 1 -43 -3 -43 -9z"/>
<path d="M3460 5020 c0 -13 22 -53 34 -61 20 -15 38 -89 41 -174 2 -49 0 -94
-3 -100 -8 -11 -9 -21 -15 -118 -2 -37 -7 -70 -11 -74 -3 -3 0 -13 7 -21 9
-12 9 -16 0 -19 -18 -6 -16 -23 3 -23 11 0 14 -6 8 -22 -4 -13 -7 -33 -6 -45
1 -13 -3 -23 -8 -23 -6 0 -10 -9 -10 -21 0 -11 5 -17 10 -14 6 3 10 -4 10 -17
0 -18 -2 -20 -10 -8 -8 12 -10 10 -10 -11 0 -14 -3 -28 -6 -32 -6 -5 -16 -136
-15 -202 0 -16 -1 -50 -1 -75 -1 -25 -2 -66 -2 -93 -1 -29 -5 -46 -12 -43 -17
7 -33 -74 -24 -122 10 -59 26 -73 35 -33 4 17 11 31 16 31 5 0 9 6 9 14 0 9 8
12 26 8 20 -4 25 -1 22 9 -3 8 -13 13 -22 13 -9 -1 -16 4 -16 12 0 8 4 14 8
14 5 0 9 32 10 71 1 52 5 74 17 83 14 10 13 15 -6 50 -16 31 -19 49 -15 85 4
25 8 74 9 107 3 65 29 130 57 138 10 3 8 5 -5 4 -35 -1 -36 1 -19 35 9 17 20
39 25 48 4 9 4 30 0 45 -5 20 -3 32 6 39 15 11 7 49 -8 39 -5 -3 -9 -2 -10 3
0 4 -3 26 -5 48 -3 22 -6 66 -7 98 -1 31 -5 57 -9 57 -5 0 -8 14 -8 30 0 17 5
30 10 30 7 0 7 7 0 21 -7 11 -8 28 -4 37 3 9 8 36 9 60 2 33 -1 42 -11 38 -8
-3 -15 2 -16 12 0 9 -2 23 -2 30 -2 29 -76 69 -76 42z"/>
<path d="M6116 5004 c-5 -14 -4 -15 9 -4 17 14 19 20 6 20 -5 0 -12 -7 -15
-16z"/>
<path d="M3132 4660 c-40 -37 -41 -46 -1 -23 37 22 53 39 41 47 -5 3 -23 -8
-40 -24z"/>
<path d="M6110 4660 c0 -5 5 -10 10 -10 6 0 10 5 10 10 0 6 -4 10 -10 10 -5 0
-10 -4 -10 -10z"/>
<path d="M6074 4652 c4 -7 2 -19 -4 -27 -9 -11 -9 -15 -1 -15 18 0 25 30 11
43 -10 9 -11 9 -6 -1z"/>
<path d="M6111 4484 c0 -11 3 -14 6 -6 3 7 2 16 -1 19 -3 4 -6 -2 -5 -13z"/>
<path d="M6180 4390 c0 -5 5 -10 11 -10 5 0 7 5 4 10 -3 6 -8 10 -11 10 -2 0
-4 -4 -4 -10z"/>
<path d="M4151 4274 c0 -17 6 -37 14 -44 8 -6 14 -15 13 -18 -1 -4 2 -15 6
-24 10 -23 33 -23 31 0 -1 20 -36 82 -46 82 -4 0 -10 8 -12 18 -3 9 -5 3 -6
-14z"/>
<path d="M2680 4234 c0 -8 5 -12 10 -9 6 4 8 11 5 16 -9 14 -15 11 -15 -7z"/>
<path d="M4390 4193 c0 -12 39 -35 50 -28 4 3 16 -2 24 -11 9 -8 24 -14 34
-11 14 3 12 6 -9 15 -15 6 -28 15 -30 20 -5 12 -69 26 -69 15z"/>
<path d="M2590 4123 c0 -5 5 -15 10 -23 8 -12 10 -11 10 8 0 12 -4 22 -10 22
-5 0 -10 -3 -10 -7z"/>
<path d="M4520 4121 c0 -5 5 -13 10 -16 6 -3 10 -2 10 4 0 5 -4 13 -10 16 -5
3 -10 2 -10 -4z"/>
<path d="M2666 4024 c-15 -39 4 -42 24 -3 8 15 7 19 -4 19 -7 0 -17 -7 -20
-16z"/>
<path d="M4340 3885 c-25 -7 -74 -28 -110 -46 -36 -19 -84 -42 -105 -51 -22
-10 -46 -27 -53 -38 -12 -19 -11 -20 6 -11 14 8 29 5 57 -9 41 -21 82 -12 71
16 -3 8 -1 14 5 14 5 0 9 6 8 13 -4 33 1 39 30 34 37 -8 203 69 180 84 -18 11
-33 10 -89 -6z"/>
<path d="M6260 3810 c0 -5 5 -10 10 -10 6 0 10 5 10 10 0 6 -4 10 -10 10 -5 0
-10 -4 -10 -10z"/>
<path d="M2640 3800 c0 -5 7 -10 16 -10 8 0 12 5 9 10 -3 6 -10 10 -16 10 -5
0 -9 -4 -9 -10z"/>
<path d="M2673 3740 c0 -25 2 -35 4 -22 2 12 2 32 0 45 -2 12 -4 2 -4 -23z"/>
<path d="M3632 3705 c-22 -25 -18 -29 25 -30 30 -1 50 -8 68 -25 14 -13 25
-20 25 -15 0 5 11 -2 24 -14 14 -14 25 -18 28 -11 2 8 11 8 29 2 18 -7 30 -6
43 3 18 14 14 35 -7 35 -15 0 -175 49 -199 61 -22 11 -20 11 -36 -6z"/>
<path d="M3530 3534 c21 -24 117 -64 156 -64 23 0 37 -6 44 -20 14 -26 30 -26
30 1 0 11 5 17 10 14 12 -7 14 -45 3 -45 -8 0 -33 -48 -33 -63 0 -4 5 -5 10
-2 6 3 10 2 10 -4 0 -5 -5 -12 -10 -14 -6 -3 -5 -4 2 -3 7 1 14 14 16 29 2 15
11 29 22 32 26 8 45 77 30 106 -11 19 -13 19 -29 5 -25 -23 -146 -22 -186 2
-16 10 -43 23 -59 30 -27 12 -28 12 -16 -4z"/>
<path d="M2855 3321 c-3 -5 -1 -12 5 -16 5 -3 10 1 10 9 0 18 -6 21 -15 7z"/>
<path d="M3734 3295 c3 -10 0 -27 -7 -39 -19 -29 -26 -74 -13 -80 6 -2 3 -5
-6 -5 -25 -1 -23 -21 2 -21 15 0 20 -7 20 -24 0 -14 5 -28 10 -31 6 -3 10 -1
10 4 0 6 7 11 15 11 12 0 9 -7 -10 -27 -30 -33 -31 -38 -7 -55 11 -7 21 -20
24 -28 2 -8 6 8 7 35 7 149 2 202 -20 216 -11 7 -11 9 -1 9 21 0 10 44 -12 48
-14 3 -17 0 -12 -13z"/>
<path d="M6231 3204 c0 -11 3 -14 6 -6 3 7 2 16 -1 19 -3 4 -6 -2 -5 -13z"/>
<path d="M6203 3186 c4 -10 7 -29 7 -42 0 -15 6 -24 16 -24 13 0 14 3 4 15 -7
8 -10 20 -7 27 2 7 -3 20 -11 28 -14 13 -15 12 -9 -4z"/>
<path d="M3644 3079 c-1 -33 3 -59 8 -59 6 0 8 -11 6 -25 -3 -14 -2 -25 3 -25
13 0 17 23 11 79 -3 36 -2 52 5 48 11 -7 39 20 30 29 -2 3 -18 7 -33 9 -29 3
-29 3 -30 -56z"/>
<path d="M3690 3070 c0 -13 5 -18 15 -14 8 4 15 12 15 20 0 8 -7 14 -15 14 -8
0 -15 -9 -15 -20z"/>
<path d="M5230 3083 c-8 -2 -22 -7 -30 -11 -8 -3 -19 -7 -25 -7 -21 -4 -84
-35 -90 -45 -5 -7 -11 -5 -19 6 -14 18 -36 12 -36 -10 0 -7 -12 -18 -26 -24
-14 -7 -23 -9 -20 -4 6 10 -184 2 -206 -9 -9 -5 -49 -11 -90 -14 -40 -3 -89
-9 -107 -15 -26 -7 -37 -7 -43 3 -6 9 -10 9 -16 -1 -5 -7 -16 -10 -28 -6 -18
6 -18 6 1 -10 l20 -16 -20 3 c-11 1 -25 6 -32 10 -6 4 -14 3 -18 -3 -3 -5 -15
-10 -25 -10 -10 0 -20 -5 -22 -11 -2 -6 -21 -13 -42 -15 -21 -2 -43 -8 -50
-13 -6 -5 -38 -11 -71 -12 -33 -1 -64 -4 -70 -8 -5 -3 -23 -4 -39 -2 -20 2
-26 -1 -21 -9 5 -9 2 -10 -12 -6 -25 8 -80 -19 -88 -43 -5 -18 -37 -27 -120
-35 -16 -2 -29 -8 -28 -15 2 -6 -2 -11 -7 -11 -6 0 -10 5 -10 10 0 6 -7 10
-16 10 -11 0 -14 6 -9 20 4 11 2 20 -4 20 -6 0 -11 -4 -11 -10 0 -18 -3 -25
-18 -40 -13 -12 -17 -11 -37 14 -19 24 -23 26 -29 11 -6 -16 -8 -15 -26 5 -11
13 -20 19 -20 14 -1 -5 -7 2 -15 16 l-14 25 -1 -27 c0 -17 5 -28 13 -28 7 0
23 -9 34 -19 12 -11 24 -17 27 -14 3 3 18 -6 32 -20 21 -21 23 -27 10 -27 -9
0 -16 5 -16 10 0 6 -11 10 -25 10 -17 0 -25 -5 -25 -18 0 -10 -7 -27 -15 -38
-18 -24 -20 -68 -2 -61 6 3 20 8 29 12 21 9 45 -30 29 -49 -12 -14 -3 -86 10
-86 5 0 9 9 9 19 0 23 12 33 26 23 11 -8 12 -72 1 -72 -5 0 -5 -5 -2 -10 4 -7
13 -6 27 1 18 9 19 8 13 -10 -7 -24 12 -30 21 -6 4 8 10 12 15 10 5 -3 11 6
15 20 7 28 24 24 24 -6 0 -10 5 -19 10 -19 6 0 10 -7 10 -16 0 -8 5 -12 10 -9
6 3 10 17 10 31 0 14 -4 23 -9 20 -4 -3 -6 6 -3 19 3 19 11 25 29 25 21 0 25
4 21 24 -3 16 0 27 10 31 10 4 11 9 4 18 -7 8 -6 17 2 30 15 20 32 22 39 5 4
-9 8 -10 14 -3 4 6 33 19 63 29 68 24 67 22 46 45 -11 12 -14 21 -7 26 6 3 11
2 11 -3 0 -6 10 -8 23 -6 12 2 16 2 10 -2 -7 -3 -13 -10 -13 -15 0 -13 24 -11
37 2 9 9 7 16 -9 29 -21 17 -21 17 15 44 20 16 78 39 134 56 54 15 112 34 128
41 17 7 46 13 65 14 19 2 42 5 50 8 8 3 26 8 40 11 14 2 43 10 66 17 45 14 94
6 94 -16 0 -14 37 -31 48 -21 3 3 -3 13 -14 20 -16 12 -17 17 -6 28 11 11 14
10 22 -1 10 -16 50 -26 50 -12 0 5 15 12 33 16 51 11 262 87 265 97 2 5 22 18
44 29 42 21 93 19 113 -6 5 -7 21 -16 33 -20 23 -7 23 -6 7 18 -26 40 -107 66
-155 50z"/>
<path d="M3705 3020 c3 -5 8 -10 11 -10 2 0 4 5 4 10 0 6 -5 10 -11 10 -5 0
-7 -4 -4 -10z"/>
<path d="M2980 2975 c0 -8 5 -15 10 -15 6 0 10 7 10 15 0 8 -4 15 -10 15 -5 0
-10 -7 -10 -15z"/>
<path d="M3690 2963 c0 -22 6 -36 19 -43 26 -13 31 -13 31 5 0 9 -6 12 -17 8
-9 -4 -14 -2 -11 3 4 5 0 20 -8 34 l-13 25 -1 -32z"/>
<path d="M6344 2954 c3 -9 6 -18 6 -20 0 -3 5 -2 10 1 16 10 12 35 -6 35 -11
0 -14 -5 -10 -16z"/>
<path d="M3382 2928 c3 -35 38 -55 38 -23 0 11 -5 15 -15 11 -8 -3 -15 -1 -15
3 0 5 5 11 12 13 13 5 2 28 -13 28 -6 0 -9 -15 -7 -32z"/>
<path d="M6287 2940 c-3 -11 -2 -20 3 -20 12 0 21 28 11 35 -5 2 -11 -4 -14
-15z"/>
<path d="M3655 2909 c-11 -16 -1 -19 13 -3 7 8 8 14 3 14 -5 0 -13 -5 -16 -11z"/>
<path d="M6253 2905 c-3 -9 -3 -18 -1 -21 3 -3 8 4 11 16 6 23 -1 27 -10 5z"/>
<path d="M3340 2886 c0 -9 5 -16 10 -16 6 0 10 4 10 9 0 6 -4 13 -10 16 -5 3
-10 -1 -10 -9z"/>
<path d="M3710 2880 c0 -5 5 -10 10 -10 6 0 10 5 10 10 0 6 -4 10 -10 10 -5 0
-10 -4 -10 -10z"/>
<path d="M3218 2773 c-7 -28 3 -83 15 -83 6 0 8 -19 4 -52 -6 -51 -6 -52 7
-22 15 33 10 84 -6 84 -6 0 -8 14 -5 33 6 38 -7 72 -15 40z"/>
<path d="M6157 2573 c-4 -3 -7 -15 -7 -25 0 -26 24 -17 28 10 3 21 -8 29 -21
15z"/>
<path d="M4300 2470 c-6 -11 -8 -20 -6 -20 3 0 10 9 16 20 6 11 8 20 6 20 -3
0 -10 -9 -16 -20z"/>
<path d="M4645 2480 c-3 -5 -2 -10 4 -10 5 0 13 5 16 10 3 6 2 10 -4 10 -5 0
-13 -4 -16 -10z"/>
<path d="M3960 2465 c-8 -9 -8 -15 -2 -15 12 0 26 19 19 26 -2 2 -10 -2 -17
-11z"/>
<path d="M4675 2440 c10 -11 20 -18 23 -15 7 6 -18 35 -31 35 -5 0 -2 -9 8
-20z"/>
<path d="M4732 2390 c24 -33 35 -38 35 -15 0 8 -6 15 -13 15 -6 0 -14 7 -18
15 -3 8 -10 15 -16 15 -6 0 -1 -13 12 -30z"/>
<path d="M4117 2344 c-42 -39 -51 -66 -10 -34 28 22 57 59 51 65 -1 2 -20 -12
-41 -31z"/>
<path d="M3146 2294 c9 -37 10 -39 17 -15 3 11 -2 26 -10 32 -12 11 -13 8 -7
-17z"/>
<path d="M4276 2305 c-22 -17 -17 -29 7 -19 16 6 32 34 19 34 -4 0 -16 -7 -26
-15z"/>
<path d="M4878 2268 c9 -9 15 -9 24 0 9 9 7 12 -12 12 -19 0 -21 -3 -12 -12z"/>
<path d="M4548 2265 c-9 -9 2 -43 16 -48 7 -3 11 5 10 21 -1 25 -14 39 -26 27z"/>
<path d="M4820 2260 c0 -5 5 -10 10 -10 6 0 10 5 10 10 0 6 -4 10 -10 10 -5 0
-10 -4 -10 -10z"/>
<path d="M4716 2223 c-6 -14 -5 -15 5 -6 7 7 10 15 7 18 -3 3 -9 -2 -12 -12z"/>
<path d="M6035 2230 c3 -5 11 -10 16 -10 6 0 7 5 4 10 -3 6 -11 10 -16 10 -6
0 -7 -4 -4 -10z"/>
<path d="M5130 2210 c19 -13 30 -13 30 0 0 6 -10 10 -22 10 -19 0 -20 -2 -8
-10z"/>
<path d="M5888 2213 c7 -3 16 -2 19 1 4 3 -2 6 -13 5 -11 0 -14 -3 -6 -6z"/>
<path d="M4850 2200 c0 -5 7 -10 15 -10 8 0 15 5 15 10 0 6 -7 10 -15 10 -8 0
-15 -4 -15 -10z"/>
<path d="M5410 2201 c0 -5 7 -14 15 -21 16 -14 18 -10 9 14 -6 17 -24 22 -24
7z"/>
<path d="M5179 2173 c-4 -24 -2 -30 6 -23 7 5 15 7 18 3 4 -3 7 -1 7 5 0 7 -4
12 -9 12 -5 0 -11 8 -13 18 -3 10 -6 4 -9 -15z"/>
<path d="M4703 2172 c3 -13 1 -37 -5 -53 -7 -20 -7 -34 -1 -40 7 -7 13 1 18
23 9 40 7 70 -7 83 -7 7 -9 3 -5 -13z"/>
<path d="M4590 2146 c0 -13 -3 -32 -6 -40 -5 -12 -2 -15 10 -10 10 4 15 17 14
40 -1 38 -18 47 -18 10z"/>
<path d="M4460 2045 c0 -8 2 -15 4 -15 2 0 6 7 10 15 3 8 1 15 -4 15 -6 0 -10
-7 -10 -15z"/>
<path d="M3926 1974 c-20 -19 -20 -25 -2 -18 8 3 17 12 20 20 7 18 1 18 -18
-2z"/>
<path d="M5150 1980 c0 -5 5 -10 10 -10 6 0 10 5 10 10 0 6 -4 10 -10 10 -5 0
-10 -4 -10 -10z"/>
<path d="M4816 1891 c-4 -5 -2 -12 3 -16 6 -3 8 -11 5 -18 -2 -7 4 -18 14 -26
12 -8 17 -21 14 -36 -2 -12 0 -25 5 -28 6 -4 9 10 8 30 0 20 -6 38 -13 41 -7
2 -12 14 -12 27 0 26 -15 41 -24 26z"/>
<path d="M4697 1793 c-4 -3 -7 -11 -7 -17 0 -6 5 -5 12 2 6 6 9 14 7 17 -3 3
-9 2 -12 -2z"/>
<path d="M4615 1729 c-4 -6 -5 -12 -2 -15 2 -3 7 2 10 11 7 17 1 20 -8 4z"/>
<path d="M4661 1694 c0 -11 3 -14 6 -6 3 7 2 16 -1 19 -3 4 -6 -2 -5 -13z"/>
<path d="M5007 1680 c-3 -13 0 -20 8 -20 7 0 16 -6 18 -12 3 -7 6 2 6 20 1 36
-23 45 -32 12z"/>
<path d="M4550 1680 c-9 -6 -10 -10 -3 -10 8 0 9 -9 3 -31 -5 -18 -6 -37 -2
-43 3 -6 9 5 13 24 3 19 10 43 14 53 8 19 -2 22 -25 7z"/>
<path d="M4940 1591 c0 -17 18 -21 24 -6 3 9 0 15 -9 15 -8 0 -15 -4 -15 -9z"/>
<path d="M4132 8074 c-34 -23 -27 -30 29 -32 l51 -1 -23 25 c-27 28 -28 29
-57 8z"/>
<path d="M4235 7980 c-4 -7 -19 -10 -34 -7 -14 3 -44 2 -66 -2 l-40 -7 32 -17
c18 -9 41 -17 52 -17 23 0 79 45 70 55 -4 3 -10 1 -14 -5z"/>
<path d="M7018 5749 c-17 -10 -12 -42 18 -102 8 -16 14 -35 14 -43 0 -8 6 -25
14 -37 8 -12 17 -38 21 -57 4 -19 15 -44 25 -55 9 -11 32 -47 50 -80 19 -33
44 -72 56 -87 12 -15 32 -58 43 -95 12 -37 26 -81 31 -98 5 -16 10 -106 10
-200 1 -155 -4 -208 -25 -257 -15 -37 15 -16 37 25 20 37 23 60 26 202 6 230
-12 296 -142 540 -21 39 -42 74 -47 80 -5 5 -9 18 -9 30 0 11 -9 37 -20 58
-11 20 -20 55 -20 77 0 31 -7 47 -33 74 -25 25 -37 32 -49 25z"/>
<path d="M6871 5584 c0 -11 3 -14 6 -6 3 7 2 16 -1 19 -3 4 -6 -2 -5 -13z"/>
<path d="M6842 5456 c-10 -46 -5 -103 9 -112 5 -3 9 31 9 75 0 45 -2 81 -4 81
-2 0 -9 -20 -14 -44z"/>
<path d="M6822 5210 c0 -16 3 -30 7 -30 4 0 8 14 9 30 0 17 -3 30 -7 30 -4 0
-8 -13 -9 -30z"/>
<path d="M7079 4702 c-13 -10 -32 -22 -43 -25 -28 -11 -2 -36 46 -43 42 -7 68
-26 68 -50 0 -24 39 -16 45 9 10 38 -18 89 -63 115 -27 15 -25 15 -53 -6z"/>
<path d="M6925 4251 c-11 -18 19 -52 41 -47 13 4 25 -2 35 -15 38 -55 38 -56
32 -29 -4 14 -17 36 -30 50 -19 20 -25 22 -32 11 -11 -17 -32 -6 -25 13 6 16
-12 31 -21 17z"/>
<path d="M6720 2261 c0 -13 29 -46 34 -40 2 2 7 15 10 29 5 18 5 21 -3 11 -8
-12 -12 -12 -25 -2 -12 10 -16 10 -16 2z"/>
<path d="M6562 2233 c1 -5 -7 -26 -19 -48 -39 -75 -38 -94 1 -43 34 44 48 98
26 98 -5 0 -9 -3 -8 -7z"/>
<path d="M6750 2190 c0 -5 5 -10 10 -10 6 0 10 5 10 10 0 6 -4 10 -10 10 -5 0
-10 -4 -10 -10z"/>
<path d="M6670 2124 c0 -8 5 -12 10 -9 6 3 10 10 10 16 0 5 -4 9 -10 9 -5 0
-10 -7 -10 -16z"/>
<path d="M6635 2091 c-3 -5 -1 -12 5 -16 5 -3 10 1 10 9 0 18 -6 21 -15 7z"/>
<path d="M6480 2070 c0 -5 5 -10 10 -10 6 0 10 5 10 10 0 6 -4 10 -10 10 -5 0
-10 -4 -10 -10z"/>
<path d="M6486 2024 c-9 -22 -8 -24 9 -18 8 4 15 12 15 20 0 19 -16 18 -24 -2z"/>
<path d="M6695 2019 c-10 -15 3 -25 16 -12 7 7 7 13 1 17 -6 3 -14 1 -17 -5z"/>
<path d="M6433 1935 c-3 -9 -3 -18 -1 -21 3 -3 8 4 11 16 6 23 -1 27 -10 5z"/>
<path d="M6280 1769 c0 -5 5 -7 10 -4 6 3 10 8 10 11 0 2 -4 4 -10 4 -5 0 -10
-5 -10 -11z"/>
<path d="M6691 1714 c0 -11 3 -14 6 -6 3 7 2 16 -1 19 -3 4 -6 -2 -5 -13z"/>
<path d="M6645 1659 c-4 -11 -4 -23 -1 -26 3 -4 6 1 6 10 0 10 5 17 10 17 6 0
10 5 10 10 0 18 -19 10 -25 -11z"/>
<path d="M6250 1649 c0 -5 5 -7 10 -4 6 3 10 8 10 11 0 2 -4 4 -10 4 -5 0 -10
-5 -10 -11z"/>
<path d="M6190 1612 c-13 -4 -50 -37 -50 -44 0 -2 13 -4 30 -5 21 -2 33 4 41
18 12 24 2 39 -21 31z"/>
<path d="M6321 1604 c0 -11 3 -14 6 -6 3 7 2 16 -1 19 -3 4 -6 -2 -5 -13z"/>
<path d="M6280 1582 c0 -10 3 -21 6 -25 10 -9 32 16 27 30 -8 20 -33 15 -33
-5z"/>
<path d="M5890 1559 c0 -5 5 -7 10 -4 6 3 10 8 10 11 0 2 -4 4 -10 4 -5 0 -10
-5 -10 -11z"/>
<path d="M6076 1552 c-10 -12 -16 -29 -14 -39 3 -15 6 -14 22 9 23 35 17 57
-8 30z"/>
<path d="M6012 1530 c-6 -10 -8 -21 -3 -24 5 -3 11 4 14 16 8 29 4 32 -11 8z"/>
<path d="M6155 1500 c-3 -5 -1 -10 4 -10 6 0 11 5 11 10 0 6 -2 10 -4 10 -3 0
-8 -4 -11 -10z"/>
<path d="M6120 1470 c0 -5 7 -10 15 -10 8 0 15 5 15 10 0 6 -7 10 -15 10 -8 0
-15 -4 -15 -10z"/>
<path d="M6175 1458 c-6 -17 0 -66 8 -75 4 -3 7 -4 8 -2 8 58 8 89 -1 89 -6 0
-13 -6 -15 -12z"/>
<path d="M5946 1423 c-6 -14 -5 -15 5 -6 7 7 10 15 7 18 -3 3 -9 -2 -12 -12z"/>
<path d="M3720 1350 c0 -5 7 -10 15 -10 8 0 15 5 15 10 0 6 -7 10 -15 10 -8 0
-15 -4 -15 -10z"/>
<path d="M3765 1333 c-3 -10 -1 -19 4 -21 6 -2 11 -11 11 -20 0 -14 2 -14 9
-3 9 14 4 48 -9 56 -4 3 -11 -3 -15 -12z"/>
<path d="M3876 1171 c-4 -5 -2 -12 4 -16 5 -3 10 -13 10 -21 0 -8 -4 -13 -9
-9 -5 3 -12 1 -15 -4 -6 -9 43 -26 51 -18 2 3 -5 21 -15 42 -11 20 -23 32 -26
26z"/>
<path d="M7031 1164 c0 -11 3 -14 6 -6 3 7 2 16 -1 19 -3 4 -6 -2 -5 -13z"/>
<path d="M5040 1120 c0 -5 5 -10 11 -10 5 0 7 5 4 10 -3 6 -8 10 -11 10 -2 0
-4 -4 -4 -10z"/>
<path d="M4280 990 c0 -5 5 -10 10 -10 6 0 10 5 10 10 0 6 -4 10 -10 10 -5 0
-10 -4 -10 -10z"/>
<path d="M7165 967 c-4 -10 -5 -21 -1 -24 10 -10 18 4 13 24 -4 17 -4 17 -12
0z"/>
<path d="M7051 924 c0 -11 3 -14 6 -6 3 7 2 16 -1 19 -3 4 -6 -2 -5 -13z"/>
<path d="M6512 515 c-17 -36 -15 -41 8 -20 20 18 27 45 12 45 -5 0 -14 -11
-20 -25z"/>
<path d="M6881 474 c0 -11 3 -14 6 -6 3 7 2 16 -1 19 -3 4 -6 -2 -5 -13z"/>
<path d="M6541 364 c0 -11 3 -14 6 -6 3 7 2 16 -1 19 -3 4 -6 -2 -5 -13z"/>
<path d="M6580 331 c0 -5 9 -19 21 -32 16 -19 19 -20 15 -6 -3 10 -6 25 -6 33
0 8 -7 14 -15 14 -8 0 -15 -4 -15 -9z"/>
</g>
</svg>
